<?xml version="1.0" encoding="UTF-8"?>
<svg width="325" height="100" version="1.1" viewBox="0 0 85.99 26.458" xmlns="http://www.w3.org/2000/svg" xmlns:cc="http://creativecommons.org/ns#" xmlns:dc="http://purl.org/dc/elements/1.1/" xmlns:rdf="http://www.w3.org/1999/02/22-rdf-syntax-ns#">
<metadata>
<rdf:RDF>
<cc:Work rdf:about="">
<dc:format>image/svg+xml</dc:format>
<dc:type rdf:resource="http://purl.org/dc/dcmitype/StillImage"/>
<dc:title/>
</cc:Work>
</rdf:RDF>
</metadata>
<g transform="translate(-2.2292 .10531)">
<g transform="translate(-.10497 .21603)">
<path d="m31.017 5.8153c-0.95276-0.31124-1.968-0.4198-2.966-0.34886-1.0153 0.072159-2.0297 0.33288-2.9134 0.84823-0.69866 0.40745-1.3035 0.99196-1.6832 1.7094-0.39157 0.73973-0.60187 1.564-0.6942 2.3925-0.13585 1.219-0.03967 2.4463 0.0167 3.6669 0.01873 0.4056 0.01831 0.81167 0.02599 1.2176 0.01602 0.84668 0.06797 1.6932 0.16812 2.5341 0.06563 0.55104 0.14301 1.1028 0.28486 1.6403 0.0823 0.31183 0.21984 0.60605 0.3741 0.88802 0.23377 0.42728 0.55263 0.81315 0.95532 1.0917 0.47161 0.32627 1.0231 0.50497 1.5645 0.67675 0.38713 0.12283 0.76874 0.26198 1.154 0.39073 0.49009 0.16379 1.0096 0.21274 1.5232 0.23111 0.57349 0.02052 1.1473 0.0078 1.7209-0.0015 0.8689-0.01408 1.7529-0.18476 2.516-0.61712 0.63407-0.35923 1.1476-0.91036 1.5-1.5455 0.45954-0.82823 0.6777-1.768 0.77488-2.7034 0.13772-1.3255 0.05686-2.6629-0.09271-3.9837-0.07287-0.64349-0.18498-1.2817-0.26939-1.9237-0.10958-0.83335-0.087642-1.6763-0.15552-2.513-0.053068-0.65417-0.15953-1.3149-0.43165-1.9179-0.16443-0.36437-0.41084-0.69149-0.72041-0.94542-0.46366-0.38032-1.0424-0.59406-1.6274-0.69956-0.33788-0.060934-0.68156-0.087485-1.0247-0.087562z" fill="none" stroke="#000" stroke-width="1.0481px"/>
<path d="m30.126 9.6271c-0.50196-0.15939-1.0366-0.24224-1.5624-0.17649-0.40694 0.050884-0.8027 0.20566-1.1264 0.46006-0.34865 0.27403-0.59688 0.657-0.76352 1.0648-0.10941 0.26772-0.17841 0.55084-0.21228 0.83788-0.07027 0.59563-0.01493 1.1955-6e-3 1.7927 5e-3 0.3369-0.01368 0.67427-0.06436 1.008-0.0824 0.54272-0.1221 1.093-0.10243 1.6417 0.01558 0.43481 0.06173 0.87314 0.19476 1.289 0.08117 0.25378 0.2018 0.49806 0.37883 0.69972 0.31805 0.36232 0.74494 0.61512 1.1947 0.77835 0.59495 0.21594 1.2394 0.29555 1.8687 0.23113 0.5035-0.05154 1.0053-0.19794 1.4307-0.47835 0.28795-0.18981 0.52826-0.45088 0.69136-0.75526 0.20708-0.38644 0.29392-0.82423 0.33198-1.2574 0.06086-0.69258-0.0027-1.3884 0.03418-2.0817 0.01475-0.27755 0.05257-0.55317 0.08274-0.8293 0.07113-0.65106 0.14762-1.3056 0.11824-1.9615-0.01879-0.41955-0.07985-0.84551-0.25561-1.2308-0.13363-0.2929-0.34984-0.54894-0.62408-0.71989-0.34007-0.21198-0.74396-0.29472-1.1397-0.31495-0.15638-8e-3 -0.31318-0.00639-0.46949 0.00214z" fill="none" stroke="#000" stroke-width="1.0481px"/>
<path d="m24.079 7.1828c0.62172-0.78447 1.3818-1.4514 2.1986-2.0253 1.0913-0.76688 2.2916-1.392 3.5714-1.7748 0.98668-0.29507 2.033-0.44829 3.0603-0.30968 0.78764 0.10627 1.5491 0.41926 2.1698 0.92061 0.29162 0.23554 0.54779 0.51498 0.7484 0.83238 0.40899 0.64708 0.66781 1.3765 0.86612 2.1117 0.34771 1.2892 0.53386 2.6169 0.64007 3.946 0.13029 1.6305 0.16298 3.2715 0.0457 4.9032-0.0567 0.78897-0.11506 1.5848-0.31213 2.3522-0.07651 0.29796-0.22827 0.57037-0.39156 0.8283-0.36589 0.57795-0.79808 1.1129-1.2714 1.6056-0.34269 0.3567-0.69575 0.71156-1.1099 0.98452-0.13776 0.0908-0.28209 0.1798-0.44337 0.2214" fill="none" stroke="#000" stroke-width="1.0481px"/>
<path d="m29.218 9.4838c-0.10382 0.61728-0.23586 1.2294-0.34374 1.8459-0.13454 0.769-0.24445 1.5465-0.24075 2.3287 0.0027 0.57096 0.06565 1.1482 0.25496 1.6896 0.14853 0.42484 0.39025 0.81693 0.70856 1.1371 0.10126 0.10186 0.21595 0.19188 0.34649 0.25362 0.2082 0.09848 0.44428 0.11746 0.67145 0.0995 0.26508-0.02096 0.52118-0.09798 0.78299-0.13946 0.11823-0.01873 0.24123-0.03495 0.35932-0.0059 0.07931 0.01953 0.14804 0.07387 0.18672 0.14609 0.03934 0.07346 0.05391 0.15737 0.06033 0.23959" fill="none" stroke="#000" stroke-width="1.0481px"/>
<path d="m49.171 6.4148c-0.30959-0.55591-0.77113-1.0287-1.3316-1.3342-0.65291-0.35587-1.4106-0.48003-2.1476-0.44995-0.93822 0.038298-1.8611 0.2922-2.7083 0.69029-0.39456 0.18541-0.78183 0.39586-1.1147 0.68137-0.53086 0.45536-0.90594 1.0682-1.1518 1.718-0.32292 0.85354-0.45515 1.7644-0.53448 2.6692-0.06119 0.69787-0.09065 1.3979-0.14572 2.0963-0.12618 1.6001-0.26938 3.2088-0.14594 4.8134 0.06998 0.90965 0.21821 1.8258 0.57294 2.6715 0.19518 0.46533 0.46856 0.89744 0.80992 1.2706 0.31203 0.34109 0.63605 0.67641 1.0137 0.94614 0.17907 0.1279 0.37811 0.22495 0.5843 0.30097 0.57568 0.21225 1.1819 0.33157 1.7895 0.40486 0.88958 0.10732 1.7947 0.13306 2.6832 0.0072 0.55323-0.07834 1.1097-0.20726 1.6042-0.47566 0.25082-0.13614 0.47197-0.32379 0.64924-0.54883 0.44613-0.56634 0.72126-1.2488 0.88612-1.946 0.23274-0.98436 0.27331-1.9991 0.3352-3.0047 0.08157-1.3254 0.15898-2.6562 0.06634-3.9833-0.03042-0.43583-0.09325-0.86846-0.16561-1.2993-0.10948-0.65184-0.16876-1.3116-0.18154-1.9726-0.0072-0.37371-0.0078-0.75452-0.12002-1.1152-0.13638-0.43846-0.37589-0.83559-0.62213-1.2196-0.20023-0.31229-0.41134-0.61746-0.62531-0.92044z" fill="none" stroke="#000" stroke-width="1.0103px"/>
<path d="m45.872 9.4259c-0.32672-0.14443-0.68385-0.24069-1.0439-0.2176-0.27394 0.017575-0.54183 0.11898-0.75703 0.2903-0.26523 0.21115-0.444 0.51251-0.5584 0.82796-0.10653 0.29376-0.15415 0.60469-0.18232 0.91503-0.0684 0.75362-0.10413 1.5114-0.06908 2.2682 0.0097 0.20922 0.03233 0.41751 0.04705 0.62636 0.06906 0.98-0.03553 1.9627 0.01728 2.9428 0.01678 0.31147 0.14343 0.61169 0.3396 0.8527 0.26547 0.32615 0.64029 0.55236 1.0399 0.67407 0.42389 0.12911 0.88641 0.13951 1.313 0.0098 0.26733-0.08132 0.48817-0.26952 0.66069-0.4839 0.26511-0.32945 0.44916-0.71611 0.59502-1.1105 0.24798-0.67058 0.40122-1.373 0.50017-2.0799 0.12028-0.85924 0.17276-1.7302 0.12268-2.5968-0.02913-0.50394-0.08052-1.0113-0.22312-1.4969-0.07955-0.27089-0.18604-0.5433-0.37324-0.75946-0.15966-0.18439-0.3725-0.31451-0.59646-0.40648-0.2688-0.11038-0.55427-0.17476-0.83182-0.25578z" fill="none" stroke="#000" stroke-width="1.0103px"/>
<path d="m45.304 9.4259c0.0061 0.40969 0.02987 0.81949 9e-3 1.2293-0.04299 0.84616-0.21218 1.6795-0.27381 2.5239-0.03628 0.49719-0.03315 1.0029 0.07945 1.491 0.09114 0.39511 0.26504 0.77088 0.51001 1.0946 0.19592 0.25887 0.43613 0.48126 0.69561 0.67528 0.10638 0.07954 0.211 0.1636 0.32964 0.22408 0.05689 0.029 0.12304 0.05978 0.18722 0.03946 0.06497-0.02056 0.11031-0.07484 0.1555-0.12265 0.0087-0.0093 0.01748-0.01852 0.02627-0.02774" fill="none" stroke="#000" stroke-width="1.0103px"/>
<path d="m49.264 21.94c0.64984-0.0077 1.2922-0.22863 1.8131-0.6178 0.67192-0.50206 1.1448-1.224 1.4855-1.9802 0.49771-1.1046 0.76787-2.2985 0.92286-3.4955 0.22043-1.7024 0.23392-3.4302 0.06632-5.1373-0.11827-1.2046-0.30118-2.4112-0.671-3.5658-0.18452-0.57609-0.40095-1.1528-0.74937-1.6518-0.22285-0.31914-0.52815-0.56955-0.84908-0.78412-0.62784-0.41976-1.3287-0.71398-2.0343-0.97483-0.42314-0.15643-0.84688-0.31162-1.2747-0.45468-0.82526-0.27596-1.7253-0.31583-2.5738-0.12258-1.078 0.2455-2.0557 0.85661-2.7982 1.6698-0.12562 0.13758-0.24367 0.28168-0.37343 0.41574-0.23346 0.24117-0.48691 0.47079-0.66252 0.75934-0.08017 0.13174-0.15311 0.28647-0.1237 0.44444 0.03011 0.16172 0.17661 0.26686 0.31774 0.32931" fill="none" stroke="#000" stroke-width="1.0103px"/>
<path d="m55.326 5.0213c0.63222 3.4402 1.1799 6.9048 1.3745 10.401 0.05032 0.9039 0.06343 1.8093 0.06786 2.7145 6e-3 1.2271 0.03398 2.4551 0.12795 3.6787 0.02843 0.37021 0.06018 0.7423 0.02417 1.1146-0.01133 0.11709-0.07404 0.21912-0.11234 0.32847-0.01784 0.05093-0.09868 0.18383-0.05151 0.15699 0.0766-0.04359 0.15414-0.09378 0.23932-0.12513 0.33604-0.12368 0.69382-0.17392 1.048-0.21149 0.92073-0.09767 1.8479-0.1124 2.773-0.11461 1.4337-0.0034 2.8665 0.05809 4.2998 0.08333 0.23168 0.0041 0.46331 0.0063 0.69491 0.01632 0.56384 0.02448 1.1284 0.07372 1.6925 0.0488 0.12527-0.0055 0.26065 0.01606 0.37504-0.03764 0.06202-0.02911 0.05419-0.11708 0.05147-0.17547-0.0099-0.21322-0.09174-0.41501-0.17807-0.60723-0.18921-0.42127-0.43643-0.81278-0.63944-1.2271-0.0565-0.11532-0.09706-0.23792-0.11672-0.36522-0.05958-0.38584-0.08116-0.77621-0.11749-1.1646-0.03785-0.40462-0.05682-0.81483-0.15791-1.2092-0.03271-0.1276-0.03708-0.2903-0.14672-0.3684-0.0471-0.03355-0.11935-7e-3 -0.17618-0.0016-1.7994 0.17387-3.5942 0.40216-5.3976 0.52833-0.12429 0.0087-0.34057 0.14597-0.37326 0.02583-0.14024-0.51554-0.13876-1.0563-0.1124-1.5858 0.03888-0.78104 0.15673-1.5587 0.13834-2.342-0.0097-0.41365-0.07672-0.82328-0.14695-1.2301-0.22703-1.3151-0.56947-2.6097-0.7412-3.934-0.05857-0.4517-0.10294-0.90809-0.07441-1.3642 0.04815-0.76988 0.182-1.5377 0.14073-2.3105-0.01673-0.3133-0.07818-0.62519-0.19965-0.91906-0.02608-0.063101-0.1038-0.07236-0.16258-0.080244-0.26081-0.034978-0.52527-0.025807-0.78728-0.014063-0.91306 0.040927-1.8224 0.13727-2.7314 0.22907-0.20808 0.021012-0.41618 0.043972-0.62448 0.061739z" fill="none" stroke="#000" stroke-width=".98861px"/>
<path d="m55.378 4.9634c-0.10557-0.19394-0.17829-0.41555-0.15496-0.6391 0.01989-0.19063 0.12-0.36506 0.25432-0.49878 0.1957-0.19485 0.44504-0.32572 0.69931-0.42667 0.42571-0.16903 0.87518-0.26992 1.3261-0.34343 0.75885-0.12371 1.5275-0.17785 2.2956-0.19694 0.62625-0.015569 1.2538-0.020169 1.8789 0.021742 0.11099 0.00744 0.22243 0.012439 0.33269 0.027973 0.0287 0.00404 0.01961 0.045385 0.01584 0.065443-0.01532 0.081501-0.05962 0.15407-0.10615 0.22116-0.11782 0.16989-0.25916 0.32185-0.40312 0.4696-0.30581 0.31386-0.63224 0.60646-0.95387 0.90375-0.05734 0.053-0.1106 0.11013-0.16613 0.16497-0.14719 0.14536-0.29438 0.29199-0.45787 0.41896-0.05631 0.043733-0.1107 0.094234-0.17806 0.11909-0.01661 0.00613-0.04369 0.016844-0.05575-0.00269" fill="none" stroke="#000" stroke-width=".98861px"/>
<path d="m62.029 2.9127c0.07332 2.0529 0.30419 4.0953 0.49106 6.1398 0.14733 1.612 0.22734 3.229 0.27083 4.8481 0.011 0.40944 0.07224 0.81554 0.08962 1.2246 0.01178 0.27721 0.01363 0.55981-0.05678 0.83017-0.04717 0.18113-0.1787 0.32522-0.31602 0.44507-0.26803 0.23392-0.57504 0.41636-0.86731 0.61734-0.26815 0.18439-0.53862 0.37585-0.74645 0.62949-0.13731 0.16758-0.23646 0.37584-0.23614 0.59641 1.74e-4 0.11959 0.02864 0.2379 0.07463 0.34788" fill="none" stroke="#000" stroke-width=".98861px"/>
<path d="m62.835 15.699c0.05204 0.04831 0.12509 0.0645 0.19245 0.07779 0.21036 0.0415 0.42537 0.05256 0.63917 0.05889 0.57614 0.01706 1.1527-3.48e-4 1.7283-0.02454 1.4461-0.06078 2.8884-0.18591 4.3327-0.27585 0.17079-0.01063 0.34702 0.01463 0.51266-0.0286 0.02108-0.0055 0.03826 0.0072 0.03062 0.0304-0.0163 0.04951-0.0549 0.08769-0.09156 0.12278-0.13862 0.13268-0.29369 0.24676-0.44928 0.35841-0.45674 0.32776-0.92806 0.63447-1.395 0.94743-0.4172 0.27965-0.83933 0.55317-1.2386 0.85817-0.14568 0.11129-0.29469 0.22085-0.42034 0.35495-0.02266 0.02418-0.04453 0.04927-0.06325 0.07667" fill="none" stroke="#000" stroke-width=".98861px"/>
<path d="m70.172 15.352c0.0195 0.1976 0.05211 0.39365 0.084 0.58954 0.20071 1.233 0.42555 2.4624 0.594 3.7005 0.05602 0.41171 0.1184 0.82372 0.13694 1.239 0.0058 0.13012 0.01053 0.2612-0.0053 0.39106-0.0054 0.04414-0.02584 0.08479-0.06491 0.11096-0.11753 0.07872-0.24237 0.14582-0.36667 0.21304-0.59486 0.32166-1.198 0.62784-1.7907 0.95341-0.30175 0.16574-0.6054 0.32933-0.89369 0.51783-0.05486 0.03587-0.10917 0.07267-0.16124 0.1125" fill="none" stroke="#000" stroke-width=".98861px"/>
<path d="m19.082 4.8589c-1.3393-0.15305-2.6902-0.043718-4.0255 0.097394-0.9713 0.10265-1.9402 0.25143-2.917 0.27961-0.93186 0.026883-1.8641 0.035683-2.7962 0.05616-1.2272 0.026961-2.4561 0.030689-3.6805 0.11972-0.291 0.021159-0.58052 0.058896-0.87139 0.08842-0.064612 0.00656-0.10238 0.039412-0.11193 0.11605-0.06374 0.51149-0.00208 1.0281 0.091446 1.5321 0.099304 0.53508 0.25795 1.0725 0.21904 1.6189-0.016944 0.23794-0.097714 0.46488-0.16514 0.69192-0.061678 0.2077-0.13785 0.41538-0.1489 0.63345-0.00457 0.09026 0.012184 0.20522 0.10408 0.24595 0.093199 0.04131 0.19853 0.02283 0.29594 0.01259 0.53266-0.05601 1.0608-0.1474 1.5899-0.22887 0.96614-0.14875 1.9317-0.31822 2.9077-0.38267 0.33895-0.022382 0.68415-0.062252 1.0197-7.005e-4 0.10353 0.018991 0.23022 0.02878 0.29599 0.11756 0.03787 0.051115 0.04432 0.11748 0.05832 0.17788 0.13977 0.60313 0.1273 1.2267 0.11854 1.8415-0.0048 0.33723 0.0044 0.67436 0.01798 1.0114 0.09901 2.4664 0.12836 4.9352 0.11572 7.4032-0.0034 0.6547-0.03513 1.3154 0.07197 1.9634 0.02099 0.12702 0.04253 0.25396 0.0484 0.38299 0.01277 0.28076 0.04148 0.56549-0.0031 0.84297-0.0066 0.04128-0.0062-0.06438-0.0019-0.08699 0.02379-0.12709 0.13998-0.20925 0.24831-0.26217 0.25949-0.12676 0.54653-0.18362 0.82991-0.22601 0.67165-0.10047 1.352-0.12066 2.0302-0.13231 0.36248-0.0062 0.72522-0.01311 1.0874 0.0048 0.07285 0.0036 0.04938-0.10344 0.0553-0.1542 0.12581-1.0782 3e-3 -2.1671-0.18766-3.2301-0.18494-1.0312-0.46333-2.0442-0.628-3.0787-0.10947-0.68777-0.07641-1.3871-0.04708-2.0798 0.02337-0.55196 0.05133-1.1058 0.0036-1.6575-0.05964-0.6896-0.16079-1.3751-0.29634-2.0532-0.06881-0.34422-0.24072-0.66578-0.27457-1.015-5e-3 -0.05153-0.05156-0.15632 0.0053-0.16092 0.06679-0.00541 0.10742 0.065856 0.16416 0.094772 0.17658 0.089986 0.37828 0.11134 0.57308 0.12363 0.48172 0.030404 0.96361-0.026977 1.4453-0.01591 0.22302 0.00512 0.44379 0.042852 0.66422 0.073997 0.47611 0.067271 0.94571 0.18159 1.425 0.22348 0.229 0.020015 0.47095 0.033541 0.68803-0.057219 0.16596-0.069386 0.27849-0.22649 0.32923-0.39512 0.08681-0.28852 0.07704-0.59549 0.05341-0.89227-0.027159-0.33993-0.083471-0.67651-0.11576-1.016-0.080528-0.84673-0.10249-1.7015-0.26802-2.5381-0.0059-0.030016-0.01179-0.060323-0.01823-0.090051z" fill="none" stroke="#000" stroke-width="1.0481px"/>
<path d="m19.433 9.5878c0.37642-0.17093 0.68486-0.4601 0.9414-0.77971 0.35795-0.44595 0.62527-0.95694 0.99099-1.3972 0.08212-0.098843 0.1851-0.17853 0.26688-0.27742 0.0792-0.095773 0.09414-0.22679 0.09574-0.34622 0.0039-0.29449-0.05412-0.58568-0.12018-0.87121-0.12887-0.55701-0.28733-1.1074-0.48202-1.6444-0.03449-0.095121-0.03828-0.1969-0.04775-0.29658-0.04274-0.44999-0.05993-0.90387-0.14083-1.3488-0.01652-0.090872-0.01422-0.19202-0.06529-0.26993-0.0263-0.040128-0.08449-0.015148-0.12206-0.00586-0.20843 0.051527-0.40691 0.13519-0.60827 0.2084-0.19767 0.07187-0.39748 0.14295-0.60792 0.16844-0.51791 0.062722-1.0379-0.0115-1.5548-0.047205-0.35704-0.024662-0.71756-0.020798-1.0715 0.042454-1.5816 0.28261-3.1672 0.54103-4.7522 0.80328-0.86831 0.14366-1.7514 0.094486-2.6269 0.081325-0.76651-0.011521-1.5422 0.013935-2.2888 0.20647-0.14413 0.037165-0.28487 0.08561-0.43051 0.11782-0.33418 0.07392-0.66938 0.14281-1.0048 0.21101-0.044342 0.00901-0.075311 0.022603-0.090756 0.076599-0.058034 0.20289-0.18494 0.37656-0.31071 0.54249-0.17826 0.23518-0.38825 0.44849-0.53555 0.7053-0.0621 0.10826-0.12358 0.23216-0.10189 0.36042 0.01988 0.11756 0.124 0.19607 0.22611 0.24338 0.01589 0.00736 0.032026 0.014186 0.048332 0.020568" fill="none" stroke="#000" stroke-width="1.0481px"/>
<path d="m20.844 2.6234c-0.08503 0.11467-0.18686 0.21561-0.29083 0.31287-0.21996 0.20575-0.45162 0.39841-0.67907 0.59571-0.28724 0.24916-0.57408 0.5007-0.82965 0.78284-0.15204 0.16784-0.29695 0.34522-0.40351 0.54591-0.07465 0.1406-0.13173 0.29569-0.13201 0.45672" fill="none" stroke="#000" stroke-width="1.0481px"/>
<path d="m15.362 22.89c0.49974-0.30056 0.98611-0.62301 1.4903-0.91613 0.42237-0.24553 0.8658-0.45731 1.3311-0.60853 0.12869-0.04182 0.32336 0.0048 0.38981-0.11306 0.08187-0.14522 0.08383-0.32087 0.05034-0.48025-0.0528-0.2513-0.17003-0.4825-0.28542-0.70984-0.09994-0.19689-0.21131-0.3893-0.28665-0.59756-0.04322-0.11947-0.05509-0.24685-0.07678-0.37123-0.26554-1.5228-0.57156-3.0399-0.75189-4.5762-0.04359-0.37132-0.07114-0.7442-0.09909-1.117-0.07748-1.0336-0.17624-2.066-0.22341-3.1016-0.0082-0.17958-0.01466-0.35926-0.01667-0.53902" fill="none" stroke="#000" stroke-width="1.0481px"/>
<path d="m80.595 5.0475c-0.63482 0.039379-1.2712 0.011122-1.9062-0.00986-1.1516-0.038064-2.3086-0.094876-3.457 0.024288-0.62098 0.064439-1.252 0.16182-1.8216 0.42688-0.20348 0.094682-0.41241 0.19535-0.57252 0.35416-0.21162 0.2099-0.32729 0.49526-0.40712 0.77677-0.16562 0.58406-0.21665 1.1943-0.22526 1.7989-0.01418 0.99666 0.06993 1.9965 0.27031 2.9728 0.11696 0.56987 0.2589 1.141 0.50807 1.6688 0.12589 0.26668 0.29124 0.521 0.52792 0.70473 0.36996 0.2872 0.84581 0.39494 1.3057 0.41017 0.69046 0.02287 1.3731-0.11147 2.0472-0.24433 0.67806-0.13364 1.3544-0.30392 2.047-0.3348 0.3964-0.01767 0.81372 0.0092 1.1694 0.20326 0.2802 0.15288 0.47702 0.42739 0.57634 0.72682 0.1532 0.46186 0.16132 0.96029 0.10382 1.4378-0.02942 0.24431 0.0098 0.4892 0.03336 0.73222 0.02401 0.24778 0.05191 0.49882 0.01596 0.74706-0.02431 0.16789-0.12041 0.31383-0.21401 0.45069-0.21302 0.31146-0.53802 0.53836-0.89876 0.64622-0.49636 0.1484-1.0243 0.12024-1.532 0.05691-0.84826-0.10581-1.6771-0.34587-2.5316-0.40169-0.42627-0.02785-0.87431-0.01011-1.2649 0.18273-0.31493 0.1555-0.54579 0.4459-0.67299 0.76914-0.18974 0.48218-0.21596 1.0101-0.2034 1.5225 0.0069 0.28212 0.03777 0.56283 0.04527 0.84506 0.0096 0.36206-0.01041 0.7333 0.09181 1.0835 0.02222 0.07612 0.02867 0.16454 0.08113 0.2246 0.06633 0.07593 0.17124 0.09951 0.26627 0.11528 0.27396 0.04547 0.55324 0.03786 0.82973 0.02892 0.24242-0.0078 0.48395-0.04039 0.72644-0.03936 1.0432 0.0044 2.0851 0.07797 3.1285 0.06581 0.93702-0.01093 1.8842-0.07037 2.7901-0.32574 0.66456-0.18734 1.3097-0.49847 1.8034-0.99045 0.42726-0.42577 0.7254-0.97822 0.84653-1.5698 0.14076-0.68752 0.0933-1.3978-0.01133-2.0866-0.18513-1.2188-0.56057-2.3971-0.80211-3.6043-0.06419-0.32082-0.10335-0.64575-0.14006-0.9709-0.07555-0.66902-0.23544-1.3465-0.59827-1.9226-0.26519-0.42101-0.6625-0.7549-1.1224-0.94593-0.59387-0.24669-1.2491-0.278-1.8842-0.26016-0.61213 0.01719-1.221 0.11168-1.8337 0.10138-0.29548-5e-3 -0.60425-0.0258-0.87093-0.16644-0.19024-0.10033-0.32062-0.29042-0.36969-0.49825-0.03459-0.14651-0.0384-0.29746-0.05378-0.44673-0.03658-0.35513-0.09668-0.71051-0.08619-1.0677 0.0023-0.079623-0.02756-0.17816 0.02635-0.23884 0.0629-0.070797 0.15958-0.10333 0.25038-0.11853 0.26347-0.044119 0.5324-0.00739 0.79314 0.036098 0.80213 0.13378 1.5875 0.37905 2.4018 0.42896 0.32855 0.020135 0.67124 0.01583 0.98006-0.11289 0.20946-0.087311 0.37712-0.26271 0.4582-0.47579 0.08018-0.21069 0.08045-0.43888 0.08596-0.66076 0.0076-0.30543 0.0036-0.61477-0.06636-0.91391-0.026242-0.11231-0.077909-0.21587-0.13782-0.31418-0.1693-0.27779-0.35138-0.54765-0.52607-0.82192z" fill="none" stroke="#000" stroke-width=".96021px"/>
<path d="m72.593 6.23c0.33232-0.74775 0.73286-1.4727 1.2607-2.1013 0.30539-0.36369 0.64137-0.71084 1.0415-0.96747 0.19763-0.12674 0.43058-0.18423 0.66022-0.2176 0.41285-0.059991 0.83158-0.053607 1.2475-0.042861 0.39061 0.010091 0.78138 0.042679 1.172 0.026156 0.26132-0.011052 0.52176-0.037492 0.78206-0.062164 0.65331-0.061921 1.306-0.15141 1.9631-0.15278 0.41344-8.618e-4 0.83477 0.030388 1.2264 0.1728 0.29365 0.10678 0.55953 0.29366 0.74821 0.54444 0.23936 0.31813 0.35548 0.71111 0.40898 1.1008 0.05463 0.39793 0.06557 0.80285 0.02524 1.2019-0.03049 0.30166-0.17268 0.58016-0.35214 0.81998-0.25766 0.34432-0.58066 0.63134-0.89278 0.92455-0.29993 0.28176-0.60519 0.5656-0.8353 0.90942-0.05509 0.082309-0.10532 0.16798-0.1483 0.25725" fill="none" stroke="#000" stroke-width=".96021px"/>
<path d="m82.006 22.495c0.58037-0.33257 1.1925-0.60504 1.7783-0.92745 0.51407-0.28291 1.021-0.59671 1.4342-1.0179 0.2351-0.2397 0.44893-0.51075 0.57266-0.82438 0.13351-0.33841 0.18682-0.70235 0.21769-1.0626 0.06517-0.76051 0.04167-1.5259-0.01469-2.286-0.094234-1.2709-0.2697-2.536-0.52714-3.7839-0.16456-0.79765-0.3456-1.5953-0.62055-2.3628-0.10233-0.28564-0.20183-0.57706-0.36393-0.83443-0.14467-0.22969-0.38411-0.37997-0.62877-0.48412-0.39422-0.16781-0.81847-0.24987-1.2407-0.30949-0.74546-0.10527-1.4995-0.12019-2.2484-0.18879-0.16963-0.015537-0.33939-0.033232-0.50687-0.064941" fill="none" stroke="#000" stroke-width=".96021px"/>
<path d="m74.046 18.517c0.04764-0.37722 0.135-0.75628 0.31768-1.0928 0.1332-0.2454 0.32864-0.45887 0.57076-0.60049 0.28328-0.16569 0.61395-0.22984 0.93855-0.2423 0.43944-0.01687 0.87702 0.04497 1.3096 0.11518 0.57428 0.09321 1.1457 0.21654 1.7277 0.2506 0.36701 0.02148 0.74278 0.0076 1.0953-0.10651 0.27023-0.08746 0.51721-0.24611 0.70596-0.45912 0.02021-0.0228 0.03978-0.04617 0.05872-0.07003" fill="none" stroke="#000" stroke-width=".96021px"/>
<path d="m81.866 6.3973c0-0.1726-0.21542-0.67798-0.47875-1.1231l-0.47874-0.80927-6.6295 0.052303 0.41038-0.42333c0.22572-0.23284 0.5915-0.47811 0.81288-0.54504 0.64119-0.19387 5.73-0.30092 6.218-0.1308 0.48288 0.16833 0.73884 0.59583 0.86651 1.4472 0.09444 0.62941-0.13766 1.362-0.53623 1.6927-0.14986 0.12437-0.18445 0.094227-0.18445-0.16073z" fill="#e3ffe2"/>
<path d="m84.706 19.663c0.08983-0.75881-0.10094-2.1337-0.54738-3.9436-0.16885-0.68456-0.37559-1.7163-0.45943-2.2928-0.18133-1.2468-0.5153-2.0673-1.0863-2.6687-0.71157-0.74948-1.1084-0.85726-3.4325-0.93218l-2.0963-0.06761-0.12019-0.62223c-0.06612-0.34223-0.09044-0.65202-0.05399-0.68845 0.03645-0.036485 0.65061 0.049681 1.3649 0.19123 0.71425 0.1416 2.0375 0.31738 2.9405 0.39061 2.0926 0.1697 2.6088 0.33838 2.9149 0.95263 0.64836 1.301 1.314 5.1084 1.3238 7.5717 0.0063 1.682-0.11381 2.1838-0.62644 2.6092-0.17688 0.1468-0.19118 0.08804-0.12154-0.49988z" fill="#e3ffe2"/>
<path d="m61.165 15.208c0-1.1159-0.10534-1.9817-0.46698-3.8385-0.44245-2.2717-0.4623-2.4882-0.37792-4.1212l0.08909-1.7236 0.57444-0.56377c0.33431-0.3281 0.57478-0.4839 0.57524-0.37272 4.51e-4 0.10508 0.11611 1.4586 0.25698 3.0079 0.20108 2.2111 0.52236 7.1348 0.52746 8.084 4.72e-4 0.08658-0.26447 0.34002-0.58873 0.56311l-0.58958 0.40564z" fill="#e3ffe2"/>
<path d="m62.019 17.47c0.28697-0.19005 0.6986-0.50692 0.91478-0.70418 0.39119-0.35694 0.4048-0.35904 2.8783-0.44306 1.3669-0.04643 2.4281-0.03478 2.3583 0.02591-0.0698 0.06068-0.42175 0.31574-0.78204 0.56683-0.64292 0.44805-0.69767 0.46068-2.9479 0.67986-3.1038 0.30232-3.0699 0.30408-2.4215-0.12534z" fill="#e3ffe2"/>
<path d="m50.948 20.557c1e-3 -0.03062 0.08866-0.52726 0.19387-1.1037 0.31842-1.7447 0.39657-5.9926 0.14713-7.9973-0.1169-0.93968-0.21313-1.9714-0.21384-2.2928-0.00105-0.71568-0.41632-1.6391-1.3295-2.96-1.121-1.6216-2.0047-2.0789-4.0176-2.0789-1.2897 0-1.3322-0.00839-0.91712-0.18801 0.23935-0.10345 0.87738-0.21195 1.4178-0.24122 0.83675-0.045279 1.1495 0.00419 2.1065 0.33671 2.476 0.85902 3.3065 1.4588 3.7907 2.7376 1.0085 2.6636 1.2213 7.7533 0.44877 10.733-0.26795 1.0337-0.93301 2.4557-1.3174 2.8168-0.17153 0.16116-0.31074 0.268-0.30931 0.23742z" fill="#e3ffe2"/>
<path d="m35.845 18.569c0.1461-0.81511 0.09056-4.3502-0.08386-5.3389-0.08272-0.46838-0.20648-1.6532-0.27513-2.6329-0.15616-2.2277-0.30955-2.9493-0.78693-3.702-0.66877-1.0546-1.3658-1.3576-4.257-1.8508-0.64853-0.11062-1.4739-0.20581-1.8342-0.21153l-0.65509-0.010482 0.79781-0.37274c1.1317-0.52872 2.2334-0.78478 3.3481-0.77813 2.59 0.015406 3.6574 1.2588 4.3859 5.109 0.28051 1.4824 0.39694 6.4808 0.18781 8.0631-0.10462 0.79176-0.25916 1.348-0.47932 1.7253-0.1787 0.30626-0.35261 0.55682-0.38644 0.55682-0.03367 0-0.01664-0.25057 0.03843-0.55682z" fill="#e3ffe2"/>
<path d="m19.97 7.3818c-0.043179-0.42255-0.1358-1.2288-0.20576-1.7917-0.12677-1.02-0.12601-1.0245 0.23024-1.3309 0.38315-0.32957 0.55454-0.31833 0.55724 0.036473 9.31e-4 0.12185 0.11884 0.59529 0.26205 1.0521 0.14321 0.45679 0.26035 0.97893 0.26035 1.1603 0 0.27103-0.35435 0.85406-0.92914 1.5288-0.05304 0.062258-0.13176-0.23254-0.17494-0.65509z" fill="#e3ffe2"/>
<path d="m16.156 20.725c-0.04937-0.48308-0.26014-1.7162-0.46835-2.7402-0.3127-1.538-0.37976-2.199-0.38549-3.7995-0.0042-1.0657-0.08102-2.3894-0.17156-2.9416l-0.16464-1.004 0.38446-0.07693c0.93578-0.18716 1.0068-0.14324 1.0068 0.62267 0 1.1226 0.36434 4.609 0.65254 6.2443 0.14606 0.82869 0.30309 1.7425 0.349 2.0308 0.04591 0.28824 0.19308 0.74282 0.32706 1.0102 0.13398 0.26736 0.24359 0.53475 0.24359 0.59421 0 0.05943-0.37884 0.29492-0.84184 0.52324l-0.84183 0.41512z" fill="#e3ffe2"/>
<path d="m78.464 18.138c-0.03169-0.0052-0.15172-0.02107-0.26637-0.0349s-0.51928-0.08175-0.89918-0.15091c-1.3396-0.24384-1.7795-0.29133-2.2611-0.24409-0.14523 0.01426-0.26764 0.02234-0.27203 0.0179-0.01941-0.01929 0.19114-0.30012 0.27865-0.37183 0.24985-0.20474 0.50814-0.27589 0.99975-0.2754 0.3744 3.77e-4 0.59648 0.02642 1.436 0.16846 0.76798 0.12994 1.0009 0.16115 1.3776 0.18459 0.51759 0.03217 0.99398-0.01668 1.3364-0.13697 0.16115-0.0566 0.14638-0.05681 0.14638 0.0021 0 0.08899-0.14848 0.3312-0.2895 0.47226-0.14974 0.14977-0.34544 0.25944-0.57902 0.32452-0.13406 0.03732-0.85936 0.06928-1.0075 0.04434z" fill="#d1d1d1"/>
<path d="m44.81 18.046c-0.37847-0.13962-0.75321-0.46793-0.86265-0.75578-0.04726-0.1243-0.09476-1.4887-0.10557-3.032-0.02298-3.3 0.03328-3.7308 0.55576-4.2388l0.33668-0.32744 0.03209 0.32425c0.01783 0.17834-0.03922 0.95756-0.12708 1.7316-0.30733 2.7132-0.09202 3.781 0.96278 4.7743 0.28689 0.27016 0.62493 0.55763 0.75118 0.63882l0.22953 0.14762-0.26181 0.34323c-0.38973 0.51092-0.86125 0.63392-1.5112 0.39417z" fill="#d1d1d1"/>
<path d="m28.787 18.628c-0.52896-0.10471-1.2723-0.4961-1.5057-0.79283-0.39287-0.49946-0.42378-0.86496-0.33225-3.9283 0.06489-2.1704 0.1402-2.6273 0.51947-3.1509 0.2647-0.36544 0.85264-0.74078 0.97254-0.62088 0.03288 0.03292-0.01347 0.44685-0.10335 0.91988-0.20873 1.1001-0.28923 3.1958-0.14871 3.872 0.2235 1.0754 0.84182 2.0117 1.5371 2.3276 0.44569 0.20247 0.86106 0.21551 1.5092 0.04738 0.26585-0.06897 0.48341-0.08815 0.48341-0.04266 0 0.2025-0.38965 0.81747-0.62324 0.98367-0.56156 0.3995-1.4699 0.55102-2.3084 0.38507z" fill="#d1d1d1"/>
<path d="m67.939 21.442c-0.36544-0.6659-0.39994-0.79187-0.51375-1.8777-0.09464-0.90277-0.09718-1.1886-0.01109-1.2742 0.27588-0.27492 2.3316-1.596 2.3871-1.534 0.09222 0.10303 0.57471 3.2339 0.58593 3.8018l0.0095 0.48986-2.0659 1.108z" fill="#e3ffe2"/>
<path d="m6.0927 4.7656c0.01406-0.042659 0.27376-0.14375 0.57722-0.22463 1.2421-0.33105 1.4558-0.35466 3.3686-0.37198l1.8342-0.016559 5.528-0.94054 1.8436 0.088044-0.44314 0.46481-0.44315 0.4648-1.3429 0.044336c-0.73861 0.024315-1.9915 0.12042-2.7841 0.21344-1.2153 0.14264-1.9134 0.17914-4.4546 0.23293-1.6574 0.035114-3.17 0.077143-3.3613 0.093389-0.24936 0.021277-0.34072 0.00734-0.32247-0.0479z" fill="#d1d1d1"/>
<path d="m55.731 4.4095c0-0.031446 0.08426-0.13797 0.18718-0.23661 0.23828-0.22828 0.92268-0.46672 1.7153-0.59758 0.53819-0.088882 2.5357-0.22907 3.2072-0.22514l0.22929 0.00105-1.0951 1.0291-0.22006-0.091922c-0.12902-0.053874-0.4445-0.091817-0.76262-0.091712-0.50357 2.411e-4 -2.3444 0.14298-2.9827 0.23128-0.15315 0.021174-0.27841 0.012681-0.27841-0.018761z" fill="#e3ffe2"/>
<path d="m6.3696 4.6808c0.10808-0.049786 0.42499-0.14283 0.70421-0.20667 0.27924-0.063831 0.5078-0.13263 0.50794-0.15286 1.36e-4 -0.020227 0.28756-0.046747 0.63871-0.058905 0.35115-0.012158 0.64581-0.041611 0.65478-0.065509 0.0094-0.023896 0.72383-0.035008 1.5886-0.024735 1.0203 0.012055 1.5723-0.00419 1.5723-0.047061 0-0.03616 0.03922-0.050625 0.08743-0.032179 0.04809 0.018448 1.2235-0.15973 2.612-0.39594 2.5666-0.43664 3.3162-0.50537 4.1022-0.37616l0.28352 0.046642-0.36517 0.40311-0.36521 0.4031-0.70443 0.040563c-0.38743 0.022327-0.9845 0.057962-1.3268 0.079239-0.34227 0.021277-0.66655 0.038466-0.72059 0.038256-0.05407-1.887e-4 -0.65837 0.055866-1.3429 0.12465-1.2142 0.12194-3.2699 0.2104-6.5181 0.28049-1.3994 0.030186-1.5798 0.02306-1.4084-0.055971z" fill="#e3ffe2"/>
</g>
</g>
</svg>
