<?xml version="1.0" encoding="UTF-8" standalone="no"?>
<svg
   xmlns:dc="http://purl.org/dc/elements/1.1/"
   xmlns:cc="http://creativecommons.org/ns#"
   xmlns:rdf="http://www.w3.org/1999/02/22-rdf-syntax-ns#"
   xmlns:svg="http://www.w3.org/2000/svg"
   xmlns="http://www.w3.org/2000/svg"
   xmlns:sodipodi="http://sodipodi.sourceforge.net/DTD/sodipodi-0.dtd"
   xmlns:inkscape="http://www.inkscape.org/namespaces/inkscape"
   width="325"
   height="100"
   viewBox="0 0 85.989579 26.458334"
   version="1.1"
   id="svg1609"
   inkscape:version="1.0.2 (e86c870879, 2021-01-15, custom)"
   sodipodi:docname="tools_header_1.svg">
  <defs
     id="defs1603">
    <inkscape:path-effect
       effect="simplify"
       id="path-effect1474"
       is_visible="true"
       lpeversion="1"
       steps="1"
       threshold="0.000515464"
       smooth_angles="360"
       helper_size="0"
       simplify_individual_paths="false"
       simplify_just_coalesce="false" />
    <inkscape:path-effect
       effect="simplify"
       id="path-effect1476"
       is_visible="true"
       lpeversion="1"
       steps="1"
       threshold="0.000515464"
       smooth_angles="360"
       helper_size="0"
       simplify_individual_paths="false"
       simplify_just_coalesce="false" />
    <inkscape:path-effect
       effect="simplify"
       id="path-effect1478"
       is_visible="true"
       lpeversion="1"
       steps="1"
       threshold="0.000515464"
       smooth_angles="360"
       helper_size="0"
       simplify_individual_paths="false"
       simplify_just_coalesce="false" />
    <inkscape:path-effect
       effect="simplify"
       id="path-effect1480"
       is_visible="true"
       lpeversion="1"
       steps="1"
       threshold="0.000515464"
       smooth_angles="360"
       helper_size="0"
       simplify_individual_paths="false"
       simplify_just_coalesce="false" />
    <inkscape:path-effect
       effect="simplify"
       id="path-effect1482"
       is_visible="true"
       lpeversion="1"
       steps="1"
       threshold="0.000515464"
       smooth_angles="360"
       helper_size="0"
       simplify_individual_paths="false"
       simplify_just_coalesce="false" />
    <inkscape:path-effect
       effect="simplify"
       id="path-effect1484"
       is_visible="true"
       lpeversion="1"
       steps="1"
       threshold="0.000515464"
       smooth_angles="360"
       helper_size="0"
       simplify_individual_paths="false"
       simplify_just_coalesce="false" />
    <inkscape:path-effect
       effect="simplify"
       id="path-effect1486"
       is_visible="true"
       lpeversion="1"
       steps="1"
       threshold="0.000515464"
       smooth_angles="360"
       helper_size="0"
       simplify_individual_paths="false"
       simplify_just_coalesce="false" />
    <inkscape:path-effect
       effect="simplify"
       id="path-effect1488"
       is_visible="true"
       lpeversion="1"
       steps="1"
       threshold="0.000515464"
       smooth_angles="360"
       helper_size="0"
       simplify_individual_paths="false"
       simplify_just_coalesce="false" />
    <inkscape:path-effect
       effect="simplify"
       id="path-effect1490"
       is_visible="true"
       lpeversion="1"
       steps="1"
       threshold="0.000515464"
       smooth_angles="360"
       helper_size="0"
       simplify_individual_paths="false"
       simplify_just_coalesce="false" />
    <inkscape:path-effect
       effect="simplify"
       id="path-effect1492"
       is_visible="true"
       lpeversion="1"
       steps="1"
       threshold="0.000515464"
       smooth_angles="360"
       helper_size="0"
       simplify_individual_paths="false"
       simplify_just_coalesce="false" />
    <inkscape:path-effect
       effect="simplify"
       id="path-effect1494"
       is_visible="true"
       lpeversion="1"
       steps="1"
       threshold="0.000515464"
       smooth_angles="360"
       helper_size="0"
       simplify_individual_paths="false"
       simplify_just_coalesce="false" />
    <inkscape:path-effect
       effect="simplify"
       id="path-effect1496"
       is_visible="true"
       lpeversion="1"
       steps="1"
       threshold="0.000515464"
       smooth_angles="360"
       helper_size="0"
       simplify_individual_paths="false"
       simplify_just_coalesce="false" />
    <inkscape:path-effect
       effect="simplify"
       id="path-effect1498"
       is_visible="true"
       lpeversion="1"
       steps="1"
       threshold="0.000515464"
       smooth_angles="360"
       helper_size="0"
       simplify_individual_paths="false"
       simplify_just_coalesce="false" />
    <inkscape:path-effect
       effect="simplify"
       id="path-effect1500"
       is_visible="true"
       lpeversion="1"
       steps="1"
       threshold="0.000515464"
       smooth_angles="360"
       helper_size="0"
       simplify_individual_paths="false"
       simplify_just_coalesce="false" />
    <inkscape:path-effect
       effect="simplify"
       id="path-effect1502"
       is_visible="true"
       lpeversion="1"
       steps="1"
       threshold="0.000515464"
       smooth_angles="360"
       helper_size="0"
       simplify_individual_paths="false"
       simplify_just_coalesce="false" />
    <inkscape:path-effect
       effect="simplify"
       id="path-effect1504"
       is_visible="true"
       lpeversion="1"
       steps="1"
       threshold="0.000515464"
       smooth_angles="360"
       helper_size="0"
       simplify_individual_paths="false"
       simplify_just_coalesce="false" />
    <inkscape:path-effect
       effect="simplify"
       id="path-effect1506"
       is_visible="true"
       lpeversion="1"
       steps="1"
       threshold="0.000515464"
       smooth_angles="360"
       helper_size="0"
       simplify_individual_paths="false"
       simplify_just_coalesce="false" />
    <inkscape:path-effect
       effect="simplify"
       id="path-effect1508"
       is_visible="true"
       lpeversion="1"
       steps="1"
       threshold="0.000515464"
       smooth_angles="360"
       helper_size="0"
       simplify_individual_paths="false"
       simplify_just_coalesce="false" />
    <inkscape:path-effect
       effect="simplify"
       id="path-effect1510"
       is_visible="true"
       lpeversion="1"
       steps="1"
       threshold="0.000515464"
       smooth_angles="360"
       helper_size="0"
       simplify_individual_paths="false"
       simplify_just_coalesce="false" />
    <inkscape:path-effect
       effect="simplify"
       id="path-effect1512"
       is_visible="true"
       lpeversion="1"
       steps="1"
       threshold="0.000515464"
       smooth_angles="360"
       helper_size="0"
       simplify_individual_paths="false"
       simplify_just_coalesce="false" />
    <inkscape:path-effect
       effect="simplify"
       id="path-effect1514"
       is_visible="true"
       lpeversion="1"
       steps="1"
       threshold="0.000515464"
       smooth_angles="360"
       helper_size="0"
       simplify_individual_paths="false"
       simplify_just_coalesce="false" />
  </defs>
  <sodipodi:namedview
     id="base"
     pagecolor="#ffffff"
     bordercolor="#666666"
     borderopacity="1.0"
     inkscape:pageopacity="0.0"
     inkscape:pageshadow="2"
     inkscape:zoom="1.8101934"
     inkscape:cx="206.8584"
     inkscape:cy="73.642242"
     inkscape:document-units="px"
     inkscape:current-layer="layer1"
     inkscape:document-rotation="0"
     showgrid="false"
     units="px"
     fit-margin-top="10"
     fit-margin-left="2.7755576e-17"
     fit-margin-right="0"
     fit-margin-bottom="0"
     inkscape:window-width="1920"
     inkscape:window-height="1027"
     inkscape:window-x="-8"
     inkscape:window-y="1072"
     inkscape:window-maximized="1" />
  <metadata
     id="metadata1606">
    <rdf:RDF>
      <cc:Work
         rdf:about="">
        <dc:format>image/svg+xml</dc:format>
        <dc:type
           rdf:resource="http://purl.org/dc/dcmitype/StillImage" />
        <dc:title></dc:title>
      </cc:Work>
    </rdf:RDF>
  </metadata>
  <g
     inkscape:label="Layer 1"
     inkscape:groupmode="layer"
     id="layer1"
     transform="translate(-2.2291898,0.10530757)">
    <g
       id="g2431"
       transform="translate(-0.10497488,0.21602741)">
      <path
         style="fill:none;stroke:#000000;stroke-width:1.04814px;stroke-linecap:butt;stroke-linejoin:miter;stroke-opacity:1"
         d="M 31.017156,5.815332 C 30.064396,5.5040926 29.049141,5.3955356 28.051111,5.4664693 27.035838,5.5386285 26.0214,5.7993494 25.137712,6.3147026 24.439055,6.7221487 23.834259,7.3066645 23.454505,8.0240701 23.062933,8.7638005 22.852638,9.588031 22.760302,10.416577 c -0.135854,1.21904 -0.03967,2.44632 0.0167,3.666895 0.01873,0.405598 0.01831,0.811667 0.02599,1.217571 0.01602,0.846682 0.06797,1.693238 0.168119,2.534076 0.06563,0.551041 0.143012,1.102825 0.284856,1.640261 0.0823,0.311828 0.219841,0.606053 0.374105,0.888018 0.233767,0.42728 0.552634,0.813153 0.955319,1.091736 0.471614,0.326269 1.023095,0.504972 1.564503,0.676754 0.387132,0.122832 0.768744,0.261978 1.154005,0.390734 0.490093,0.163791 1.009624,0.212735 1.523199,0.231114 0.573486,0.02052 1.147337,0.0078 1.720871,-0.0015 0.868901,-0.01408 1.752891,-0.184764 2.516044,-0.617122 0.634073,-0.359229 1.147607,-0.910365 1.500034,-1.545542 0.45954,-0.828227 0.677695,-1.767993 0.77488,-2.703372 0.137717,-1.325488 0.05686,-2.662913 -0.09271,-3.983707 C 35.173347,13.259 35.061236,12.620782 34.976825,11.978832 34.867249,11.14548 34.889183,10.30249 34.821309,9.465801 34.768241,8.8116281 34.661776,8.1508857 34.389663,7.5478774 34.225237,7.1835054 33.978818,6.8563831 33.669252,6.6024593 33.205591,6.2221384 32.626874,6.0083994 32.041855,5.9028943 31.703978,5.8419599 31.360296,5.8154092 31.017156,5.815332 Z"
         id="path1057-1"
         inkscape:path-effect="#path-effect1474"
         inkscape:original-d="m 31.017156,5.815332 c -2.539551,-0.8393387 -6.40812,-0.3377939 -7.690315,2.4647661 -0.989684,2.1632079 -0.52542,4.5504879 -0.52542,6.8211059 0,1.139535 0.174859,3.772928 0.573184,4.728912 0.837817,2.010787 2.015397,1.980989 3.853116,2.665391 0.918568,0.342072 2.214964,0.25793 3.184397,0.25793 5.846729,0 5.257842,-6.397218 4.585527,-10.632896 -0.237846,-1.498585 0.0477,-3.4107748 -0.716486,-4.786234 C 33.629974,6.1621461 32.246045,5.8153162 31.017156,5.8153162 Z" />
      <path
         style="fill:none;stroke:#000000;stroke-width:1.04814px;stroke-linecap:butt;stroke-linejoin:miter;stroke-opacity:1"
         d="M 30.125526,9.6271339 C 29.623568,9.4677394 29.088954,9.3848918 28.563136,9.4506401 28.156195,9.501524 27.760438,9.656299 27.43677,9.9106962 c -0.348653,0.2740348 -0.596881,0.6569978 -0.763519,1.0647608 -0.109409,0.267723 -0.178414,0.550835 -0.21228,0.83788 -0.07027,0.595634 -0.01493,1.195455 -0.006,1.79272 0.005,0.336897 -0.01368,0.674266 -0.06436,1.008025 -0.0824,0.542724 -0.122098,1.093013 -0.102431,1.641731 0.01558,0.43481 0.06173,0.873136 0.194758,1.28905 0.08117,0.253785 0.201798,0.498056 0.378828,0.699723 0.318053,0.362316 0.744938,0.615118 1.194674,0.778352 0.594954,0.215941 1.2394,0.29555 1.86868,0.231131 0.503503,-0.05154 1.005312,-0.197938 1.430711,-0.478353 0.287954,-0.189814 0.52826,-0.45088 0.691365,-0.755255 0.207078,-0.386435 0.293921,-0.824233 0.331983,-1.257385 0.06086,-0.692585 -0.0027,-1.388366 0.03418,-2.081724 0.01475,-0.277554 0.05257,-0.553167 0.08274,-0.829298 0.07113,-0.651064 0.147617,-1.305621 0.11824,-1.961456 -0.01879,-0.419548 -0.07985,-0.84551 -0.255612,-1.230769 -0.133628,-0.292903 -0.349835,-0.548937 -0.624082,-0.7198859 -0.340072,-0.2119805 -0.743965,-0.294716 -1.139654,-0.3149504 -0.156378,-0.008 -0.313184,-0.00639 -0.46949,0.00214 z"
         id="path1061-9"
         inkscape:path-effect="#path-effect1476"
         inkscape:original-d="m 30.125526,9.6271339 c -1.555832,-0.4954562 -2.989787,-0.105098 -3.534682,1.5763011 -0.343062,1.058649 -0.01426,2.271839 -0.191061,3.353231 -0.157389,0.963293 -0.254128,2.789396 0.398052,3.611169 1.057064,1.331927 3.900922,1.538046 5.015428,0.200609 0.863464,-1.036176 0.489562,-2.713427 0.620948,-3.955092 0.238242,-2.251354 0.743705,-4.9527381 -2.308681,-4.7862301 z" />
      <path
         style="fill:none;stroke:#000000;stroke-width:1.04814px;stroke-linecap:butt;stroke-linejoin:miter;stroke-opacity:1"
         d="m 24.07927,7.1828247 c 0.621723,-0.784468 1.381791,-1.4513718 2.198578,-2.0253429 1.091299,-0.766876 2.291566,-1.3920329 3.571436,-1.774778 0.986679,-0.2950663 2.033005,-0.4482869 3.060286,-0.3096783 0.787642,0.1062747 1.549062,0.4192609 2.169771,0.9206054 0.291617,0.2355381 0.547793,0.5149835 0.748405,0.8323783 0.408994,0.6470832 0.667814,1.3765155 0.866119,2.1117478 0.347714,1.2891812 0.533863,2.6169431 0.640067,3.945992 0.13029,1.630468 0.162977,3.271463 0.0457,4.903223 -0.0567,0.788974 -0.11506,1.584764 -0.312128,2.352206 -0.07651,0.297965 -0.228267,0.570367 -0.391558,0.828298 -0.36589,0.577952 -0.798079,1.112907 -1.271423,1.605611 -0.342688,0.356704 -0.695752,0.711565 -1.109891,0.984525 -0.137763,0.0908 -0.282087,0.179796 -0.443368,0.221397"
         id="path1065-2"
         inkscape:path-effect="#path-effect1478"
         inkscape:original-d="M 24.07927,7.1828247 C 26.31502,4.3357815 32.363835,1.210406 35.411618,4.296353 c 2.225664,2.2535251 2.36273,10.874038 1.655887,13.842825 -0.250444,1.051899 -2.392803,3.442198 -3.21624,3.639831"
         sodipodi:nodetypes="cssc" />
      <path
         style="fill:none;stroke:#000000;stroke-width:1.04814px;stroke-linecap:butt;stroke-linejoin:miter;stroke-opacity:1"
         d="m 29.217967,9.4838319 c -0.103818,0.6172841 -0.235862,1.2293781 -0.343736,1.8459421 -0.134544,0.768999 -0.24445,1.546529 -0.240747,2.328727 0.0027,0.570965 0.06565,1.148175 0.254965,1.689639 0.148534,0.424836 0.390249,0.816931 0.708562,1.13714 0.101255,0.101858 0.215951,0.191877 0.346489,0.253621 0.208203,0.09848 0.444275,0.117465 0.671452,0.0995 0.26508,-0.02096 0.521185,-0.09798 0.782988,-0.139463 0.118229,-0.01873 0.241231,-0.03495 0.359325,-0.0059 0.07931,0.01953 0.148042,0.07387 0.186719,0.14609 0.03934,0.07346 0.05391,0.157366 0.06033,0.239592"
         id="path1069-3"
         inkscape:path-effect="#path-effect1480"
         inkscape:original-d="m 29.217967,9.4838319 c -0.333,2.0146651 -1.346323,5.4517481 0.461744,7.0790411 0.900939,0.81086 2.250142,-0.489447 2.324602,0.515885" />
      <path
         style="fill:none;stroke:#000000;stroke-width:1.01027px;stroke-linecap:butt;stroke-linejoin:miter;stroke-opacity:1"
         d="M 49.17143,6.41482 C 48.86184,5.8589115 48.400302,5.3860934 47.839818,5.0806038 47.186905,4.7247364 46.429214,4.6005761 45.692254,4.6306582 44.754031,4.6689557 43.831127,4.9228619 42.983973,5.320951 42.589413,5.50636 42.20214,5.7168079 41.869292,6.0023188 41.33843,6.4576826 40.963353,7.0705513 40.717539,7.720286 c -0.322921,0.8535433 -0.455153,1.7644418 -0.534476,2.669171 -0.06119,0.697869 -0.09065,1.397915 -0.145721,2.096293 -0.126179,1.60013 -0.269381,3.208833 -0.145944,4.813423 0.06998,0.909652 0.218211,1.825805 0.572945,2.67154 0.195177,0.465329 0.468564,0.897444 0.809918,1.270587 0.312034,0.341093 0.636046,0.676411 1.013693,0.946144 0.179074,0.127903 0.37811,0.22495 0.584302,0.300973 0.575678,0.212252 1.181874,0.331567 1.789463,0.404865 0.889579,0.107317 1.794741,0.133065 2.683192,0.0072 0.553231,-0.07834 1.109744,-0.207264 1.604227,-0.475655 0.250815,-0.136135 0.47197,-0.323793 0.649242,-0.548827 0.446134,-0.566335 0.721262,-1.248786 0.886116,-1.946031 0.232738,-0.984361 0.273311,-1.999108 0.335196,-3.004668 0.08157,-1.325425 0.158979,-2.656214 0.06634,-3.983325 -0.03042,-0.435834 -0.09325,-0.868458 -0.165606,-1.299262 -0.109481,-0.651842 -0.168757,-1.311598 -0.181541,-1.9725917 -0.0072,-0.3737097 -0.0078,-0.754518 -0.12002,-1.1152176 C 50.282489,8.1164473 50.042973,7.7193112 49.796738,7.3352597 49.596511,7.0229668 49.385402,6.7178013 49.17143,6.41482 Z"
         id="path1073-5"
         inkscape:path-effect="#path-effect1482"
         inkscape:original-d="M 49.17143,6.41482 C 47.785877,3.9575094 44.604023,4.3910755 42.46487,5.5860703 c -2.077427,1.1605221 -2.2389,3.8654876 -2.363405,5.9945797 -0.155487,2.658548 -0.872741,7.395046 1.104967,9.585794 0.377646,0.418283 0.898646,0.97448 1.411909,1.215491 1.537427,0.721929 5.716349,1.013303 6.90606,-0.414376 1.074827,-1.289809 1.17422,-3.083147 1.273784,-4.696206 0.106009,-1.717235 0.252028,-3.743229 -0.04603,-5.442086 C 50.180318,8.5697443 51.19448,9.2760259 49.171436,6.41482 Z" />
      <path
         style="fill:none;stroke:#000000;stroke-width:1.01027px;stroke-linecap:butt;stroke-linejoin:miter;stroke-opacity:1"
         d="m 45.871865,9.4259189 c -0.326719,-0.1444328 -0.683848,-0.2406925 -1.04387,-0.2175951 -0.273938,0.017575 -0.541829,0.1189846 -0.757029,0.2903044 -0.265227,0.211146 -0.444002,0.5125148 -0.558397,0.8279638 -0.106528,0.293756 -0.154149,0.604687 -0.182315,0.915028 -0.0684,0.753623 -0.104131,1.511449 -0.06908,2.268231 0.0097,0.209219 0.03233,0.417508 0.04705,0.626364 0.06906,0.979998 -0.03553,1.962708 0.01728,2.94281 0.01678,0.311469 0.143427,0.611692 0.339597,0.8527 0.265471,0.326149 0.640291,0.552357 1.039896,0.674067 0.423893,0.129108 0.886411,0.139514 1.312958,0.0098 0.267333,-0.08132 0.488173,-0.269519 0.660687,-0.483898 0.265113,-0.329451 0.449164,-0.716109 0.595022,-1.110534 0.247979,-0.670579 0.40122,-1.373049 0.500168,-2.07989 0.120282,-0.859241 0.172763,-1.730213 0.122679,-2.596763 -0.02913,-0.503941 -0.08052,-1.011296 -0.223119,-1.496871 -0.07955,-0.270886 -0.186044,-0.5433 -0.373243,-0.759455 C 47.140491,9.9037942 46.927647,9.7736719 46.703688,9.681701 46.43489,9.5713168 46.149417,9.5069407 45.871865,9.4259189 Z"
         id="path1077-3"
         inkscape:path-effect="#path-effect1484"
         inkscape:original-d="m 45.871865,9.4259189 c -1.484486,-0.6578004 -2.393915,0.218911 -2.532217,1.7127381 -0.09072,0.979943 -0.135443,1.852186 -0.04607,2.817724 0.09456,1.02161 -0.0099,2.068818 0.0305,3.093974 0.04869,1.227181 1.618499,1.953281 2.747088,1.546978 1.83422,-0.660336 2.337278,-6.867103 1.335171,-8.370295 C 47.051034,9.6940869 46.449653,9.5937269 45.871659,9.4259189 Z" />
      <path
         style="fill:none;stroke:#000000;stroke-width:1.01027px;stroke-linecap:butt;stroke-linejoin:miter;stroke-opacity:1"
         d="m 45.30403,9.4259189 c 0.0061,0.4096872 0.02987,0.8194861 0.009,1.2292621 -0.04299,0.846156 -0.212184,1.67949 -0.273806,2.523876 -0.03628,0.497186 -0.03315,1.002898 0.07945,1.491043 0.09114,0.395113 0.265039,0.770882 0.510009,1.094573 0.195916,0.258873 0.436128,0.481265 0.695614,0.67528 0.10638,0.07954 0.211,0.163597 0.329641,0.224083 0.05689,0.029 0.123042,0.05978 0.187216,0.03946 0.06497,-0.02056 0.110312,-0.07484 0.155501,-0.122654 0.0087,-0.0093 0.01748,-0.01852 0.02627,-0.02774"
         id="path1081-8"
         inkscape:path-effect="#path-effect1486"
         inkscape:original-d="m 45.30403,9.4259189 c 0.0051,0.359107 0.02694,0.7183961 0.01545,1.0773671 -0.07059,2.159547 -1.044392,4.35619 0.936157,5.884074 0.555734,0.428722 0.572756,0.37008 0.767335,0.165748" />
      <path
         style="fill:none;stroke:#000000;stroke-width:1.01027px;stroke-linecap:butt;stroke-linejoin:miter;stroke-opacity:1"
         d="m 49.263507,21.939935 c 0.649838,-0.0077 1.292229,-0.22863 1.813076,-0.617805 0.67192,-0.502057 1.144824,-1.224035 1.485519,-1.980155 0.497709,-1.10459 0.767869,-2.298489 0.922863,-3.495465 0.220434,-1.702355 0.233917,-3.430158 0.06632,-5.137311 C 53.433017,9.5045513 53.250106,8.2980157 52.880284,7.1433728 52.695767,6.5672817 52.479338,5.9905342 52.130913,5.4915438 51.908067,5.1723994 51.602766,4.9219914 51.281831,4.7074214 50.653996,4.2876645 49.953086,3.9934381 49.247517,3.7325924 48.824378,3.5761597 48.400635,3.4209745 47.972818,3.2779158 47.147562,3.0019566 46.247487,2.9620855 45.398983,3.1553322 c -1.077958,0.245505 -2.055732,0.8566121 -2.798164,1.6697715 -0.125615,0.1375816 -0.243668,0.2816845 -0.373433,0.4157382 -0.233455,0.2411712 -0.486911,0.4707921 -0.662515,0.7593438 -0.08017,0.131735 -0.153109,0.2864694 -0.123695,0.4444417 0.03011,0.1617164 0.176607,0.2668572 0.317745,0.329311"
         id="path1085-9"
         inkscape:path-effect="#path-effect1488"
         inkscape:original-d="M 49.263507,21.939935 C 55.020592,21.825251 54.250773,7.5623367 51.887817,5.1993286 50.953593,4.2650852 49.314879,3.7592303 48.097145,3.3208431 45.976341,2.5573307 43.796705,3.3801461 42.41883,5.0335811 42.042966,5.484649 40.872295,6.3749519 41.758921,6.7739384" />
      <path
         style="fill:none;stroke:#000000;stroke-width:0.988611px;stroke-linecap:butt;stroke-linejoin:miter;stroke-opacity:1"
         d="m 55.326366,5.0212768 c 0.63222,3.440246 1.179864,6.9048242 1.374508,10.4010792 0.05032,0.9039 0.06343,1.809254 0.06786,2.714479 0.006,1.227111 0.03398,2.455103 0.127948,3.678731 0.02843,0.37021 0.06018,0.742305 0.02417,1.114573 -0.01133,0.117088 -0.07404,0.219115 -0.112339,0.328474 -0.01784,0.05093 -0.09868,0.183832 -0.05151,0.156986 0.0766,-0.04359 0.154143,-0.09378 0.239324,-0.125131 0.336035,-0.123681 0.693818,-0.173918 1.047984,-0.211489 0.920733,-0.09767 1.847882,-0.112397 2.772972,-0.114614 1.433739,-0.0034 2.866498,0.05809 4.299795,0.08333 0.231685,0.0041 0.46331,0.0063 0.694911,0.01632 0.563836,0.02448 1.128439,0.07372 1.692535,0.0488 0.125271,-0.0055 0.260654,0.01606 0.375035,-0.03764 0.06202,-0.02911 0.05419,-0.117084 0.05147,-0.17547 -0.0099,-0.213218 -0.09174,-0.41501 -0.178071,-0.607231 -0.189212,-0.421274 -0.436434,-0.812783 -0.639439,-1.227125 -0.0565,-0.115325 -0.09706,-0.237923 -0.116716,-0.365222 -0.05958,-0.385842 -0.08116,-0.776206 -0.117494,-1.164623 -0.03785,-0.40462 -0.05682,-0.814831 -0.157907,-1.209237 -0.03271,-0.127603 -0.03708,-0.290299 -0.146717,-0.368398 -0.0471,-0.03355 -0.119352,-0.007 -0.176182,-0.0016 -1.799406,0.173871 -3.594172,0.402165 -5.39757,0.528329 -0.124287,0.0087 -0.340574,0.145969 -0.373255,0.02583 -0.14024,-0.515542 -0.138762,-1.056252 -0.112398,-1.585816 0.03888,-0.781044 0.156734,-1.558724 0.138339,-2.342041 -0.0097,-0.413649 -0.07672,-0.823277 -0.14695,-1.230087 C 60.279643,12.037385 59.937201,10.7428 59.765473,9.4184387 59.706903,8.9667415 59.662536,8.5103468 59.691063,8.0542444 59.739213,7.2843649 59.873061,6.5165708 59.831795,5.7437911 59.815065,5.4304883 59.753615,5.118603 59.632143,4.8247328 c -0.02608,-0.063101 -0.103795,-0.07236 -0.16258,-0.080244 -0.26081,-0.034978 -0.525274,-0.025807 -0.787283,-0.014063 -0.913055,0.040927 -1.822414,0.1372713 -2.731428,0.2290652 -0.20808,0.021012 -0.416182,0.043972 -0.624475,0.061739 z"
         id="path1089-7"
         inkscape:path-effect="#path-effect1490"
         inkscape:original-d="m 55.326366,5.0212768 c 0.768476,4.1771357 1.441702,8.5375522 1.441702,12.8133952 0,1.28904 0.03605,2.58075 0.120112,3.865642 0.02614,0.397965 0.102602,0.930524 0.01505,1.32459 -0.02892,0.129223 -0.224931,0.459304 -0.120111,0.378439 0.910284,-0.702229 7.18276,-0.351421 8.695286,-0.351421 0.304557,0 2.38583,0.141147 2.43288,0 0.160281,-0.48095 -0.693426,-1.646146 -0.871042,-2.162602 -0.157033,-0.456669 -0.155527,-2.653985 -0.480565,-2.946539 -0.01149,-0.0103 -5.923301,0.599032 -5.932008,0.567693 -0.345479,-1.243689 0.146138,-3.009863 0,-4.325203 C 60.44188,12.513399 59.731206,10.09028 59.681549,8.4814196 59.651838,7.5197272 60.085694,5.640588 59.621414,4.8050047 59.477098,4.5452913 55.926967,4.9735649 55.326338,5.0212609 Z" />
      <path
         style="fill:none;stroke:#000000;stroke-width:0.988611px;stroke-linecap:butt;stroke-linejoin:miter;stroke-opacity:1"
         d="m 55.378273,4.9633523 c -0.105571,-0.1939418 -0.178289,-0.4155458 -0.15496,-0.6390988 0.01989,-0.190627 0.120002,-0.3650584 0.254315,-0.4987838 0.195705,-0.1948486 0.445037,-0.3257161 0.699312,-0.4266749 0.425713,-0.1690275 0.875181,-0.2699181 1.326108,-0.3434273 0.75885,-0.1237061 1.527545,-0.1778491 2.295574,-0.1969431 0.626248,-0.015569 1.253783,-0.020169 1.878905,0.021742 0.11099,0.00744 0.22243,0.012439 0.332689,0.027973 0.0287,0.00404 0.01961,0.045385 0.01584,0.065443 -0.01532,0.081501 -0.05962,0.1540716 -0.106149,0.2211615 -0.117821,0.1698881 -0.259164,0.3218539 -0.403116,0.4695978 -0.305809,0.3138645 -0.632237,0.6064609 -0.953874,0.9037538 -0.05734,0.053 -0.110597,0.1101278 -0.166127,0.164967 -0.147194,0.1453624 -0.294376,0.2919869 -0.457872,0.4189599 -0.05631,0.043733 -0.110699,0.094234 -0.178061,0.1190917 -0.01661,0.00613 -0.04369,0.016844 -0.05575,-0.00269"
         id="path1093-2"
         sodipodi:nodetypes="cscc"
         inkscape:original-d="m 55.378273,4.9633523 c -1.380439,-2.5414362 6.6301,-2.1079097 6.646013,-2.0506072 0.09064,0.3263056 -1.32705,1.49811 -1.591881,1.7841395 -0.02337,0.025749 -0.670042,0.6745933 -0.727293,0.5715359"
         inkscape:path-effect="#path-effect1492" />
      <path
         style="fill:none;stroke:#000000;stroke-width:0.988611px;stroke-linecap:butt;stroke-linejoin:miter;stroke-opacity:1"
         d="m 62.029001,2.9127412 c 0.07332,2.0528862 0.304194,4.0953153 0.491055,6.1397962 0.14733,1.6119636 0.227339,3.2289626 0.27083,4.8480626 0.011,0.409435 0.07224,0.815543 0.08962,1.224609 0.01178,0.27721 0.01363,0.55981 -0.05678,0.830174 -0.04717,0.181131 -0.178704,0.325223 -0.316024,0.445071 -0.268027,0.233925 -0.575036,0.416356 -0.867314,0.617342 -0.26815,0.184394 -0.538624,0.375853 -0.746447,0.629491 -0.137308,0.167578 -0.236465,0.375841 -0.236144,0.596414 1.74e-4,0.119586 0.02864,0.237904 0.07463,0.347876"
         id="path1097-7"
         inkscape:path-effect="#path-effect1494"
         inkscape:original-d="m 62.029001,2.9127412 c 0.122211,3.5191448 0.761183,7.3670078 0.761183,10.9211198 0,0.622714 0.195735,1.539064 0.02971,2.135561 -0.228379,0.822102 -2.609673,1.368863 -2.087477,2.622155"
         sodipodi:nodetypes="cscc" />
      <path
         style="fill:none;stroke:#000000;stroke-width:0.988611px;stroke-linecap:butt;stroke-linejoin:miter;stroke-opacity:1"
         d="m 62.835249,15.699108 c 0.05204,0.04831 0.125094,0.0645 0.192446,0.07779 0.210361,0.0415 0.425371,0.05256 0.63917,0.05889 0.576142,0.01706 1.152681,-3.48e-4 1.728336,-0.02454 1.44607,-0.06078 2.888377,-0.18591 4.332739,-0.275848 0.170794,-0.01063 0.347024,0.01463 0.512664,-0.0286 0.02108,-0.0055 0.03826,0.0072 0.03062,0.0304 -0.0163,0.04951 -0.0549,0.08769 -0.09156,0.122785 -0.138622,0.13268 -0.293686,0.246755 -0.449276,0.358408 -0.456745,0.327764 -0.928064,0.634474 -1.39495,0.947433 -0.417197,0.279652 -0.839327,0.553171 -1.238569,0.858174 -0.145675,0.111289 -0.294689,0.22085 -0.420335,0.354947 -0.02266,0.02418 -0.04453,0.04927 -0.06325,0.07667"
         id="path1101-2"
         inkscape:path-effect="#path-effect1496"
         inkscape:original-d="m 62.835249,15.699108 c 0.398975,0.427537 7.40383,-0.243155 7.433786,-0.189239 0.132353,0.238242 -3.292541,2.210804 -3.655756,2.745733"
         sodipodi:nodetypes="csc" />
      <path
         style="fill:none;stroke:#000000;stroke-width:0.988611px;stroke-linecap:butt;stroke-linejoin:miter;stroke-opacity:1"
         d="m 70.172498,15.351541 c 0.0195,0.197601 0.05211,0.39365 0.084,0.589536 0.200707,1.233034 0.425551,2.462447 0.594001,3.700459 0.05602,0.411709 0.118395,0.823722 0.136935,1.239035 0.0058,0.130124 0.01053,0.261204 -0.0053,0.391058 -0.0054,0.04414 -0.02584,0.08479 -0.06491,0.110961 -0.117534,0.07872 -0.242372,0.145825 -0.366674,0.213039 -0.594858,0.321659 -1.197999,0.627843 -1.790748,0.953413 -0.301749,0.165737 -0.605403,0.329327 -0.89369,0.517831 -0.05486,0.03587 -0.109172,0.07267 -0.161245,0.112505"
         id="path1105-9"
         inkscape:path-effect="#path-effect1498"
         inkscape:original-d="m 70.172498,15.351541 c 0.05209,0.641967 1.029731,5.702647 0.780923,6.001211 -0.118328,0.142018 -2.66152,1.376045 -3.248569,1.826626"
         sodipodi:nodetypes="csc" />
      <path
         style="fill:none;stroke:#000000;stroke-width:1.04814px;stroke-linecap:butt;stroke-linejoin:miter;stroke-opacity:1"
         d="M 19.082278,4.8588766 C 17.742961,4.7058303 16.392055,4.8151588 15.05677,4.9562709 14.085473,5.058917 13.116607,5.207704 12.139797,5.2358835 c -0.931861,0.026883 -1.864147,0.035683 -2.7961604,0.05616 -1.2271511,0.026961 -2.4560909,0.030689 -3.680486,0.1197163 -0.2910011,0.021159 -0.5805161,0.058896 -0.8713909,0.08842 -0.064612,0.00656 -0.1023773,0.039412 -0.1119271,0.1160457 -0.06374,0.5114938 -0.00208,1.0281226 0.091446,1.5320761 0.099304,0.5350847 0.2579486,1.0725073 0.2190387,1.618902 -0.016944,0.2379415 -0.097714,0.4648781 -0.1651359,0.6919229 -0.061678,0.2076991 -0.1378465,0.4153806 -0.1488952,0.6334515 -0.00457,0.09026 0.012184,0.205225 0.1040755,0.245953 0.093199,0.04131 0.1985319,0.02283 0.2959379,0.01259 0.5326576,-0.05601 1.0607876,-0.147401 1.5899359,-0.228868 0.9661416,-0.1487457 1.931685,-0.3182183 2.9077105,-0.3826673 0.3389536,-0.022382 0.684149,-0.062252 1.019686,-7.005e-4 0.103526,0.018991 0.230221,0.02878 0.29599,0.1175575 0.03787,0.051115 0.04432,0.1174764 0.05832,0.1778753 0.139769,0.603129 0.127296,1.226714 0.118542,1.84152 -0.0048,0.337233 0.0044,0.674361 0.01798,1.011389 0.09901,2.466359 0.128365,4.935152 0.115718,7.403212 -0.0034,0.654702 -0.03513,1.31536 0.07197,1.963395 0.02099,0.127021 0.04253,0.253955 0.0484,0.382993 0.01277,0.280761 0.04148,0.565489 -0.0031,0.84297 -0.0066,0.04128 -0.0062,-0.06438 -0.0019,-0.08699 0.02379,-0.127088 0.139981,-0.209251 0.248311,-0.262168 0.25949,-0.126755 0.546527,-0.183615 0.829908,-0.226006 0.67165,-0.100473 1.35202,-0.120663 2.030192,-0.132311 0.362476,-0.0062 0.725225,-0.01311 1.087367,0.0048 0.07285,0.0036 0.04938,-0.103442 0.0553,-0.154195 0.125813,-1.078185 0.003,-2.167138 -0.187663,-3.230143 -0.184935,-1.031155 -0.463329,-2.044174 -0.628,-3.078719 -0.109474,-0.68777 -0.07641,-1.387129 -0.04708,-2.079823 0.02337,-0.551957 0.05133,-1.105772 0.0036,-1.657541 -0.05964,-0.689604 -0.160787,-1.375128 -0.296336,-2.053171 -0.06881,-0.344222 -0.240717,-0.6657816 -0.274568,-1.015002 -0.005,-0.05153 -0.05156,-0.156325 0.0053,-0.1609246 0.06679,-0.00541 0.10742,0.065856 0.16416,0.094772 0.176575,0.089986 0.378275,0.1113367 0.573075,0.1236317 0.481722,0.030404 0.963607,-0.026977 1.445321,-0.01591 0.223016,0.00512 0.443788,0.042852 0.664216,0.073997 0.476109,0.067271 0.945709,0.1815902 1.424966,0.2234789 0.228997,0.020015 0.470946,0.033541 0.688027,-0.057219 0.165957,-0.069386 0.278492,-0.2264901 0.329226,-0.3951151 0.08681,-0.2885229 0.07704,-0.5954877 0.05341,-0.8922701 C 19.457125,8.1630386 19.400813,7.8264631 19.368528,7.4869945 19.288,6.6402612 19.266042,5.7855321 19.10051,4.9489278 19.09461,4.9189118 19.08872,4.8886048 19.08228,4.8588768 Z"
         id="path1109-6"
         inkscape:path-effect="#path-effect1500"
         inkscape:original-d="m 19.082278,4.8588766 c -2.290129,-0.2612584 -4.591291,0.237252 -6.846452,0.3725755 -0.70091,0.042031 -7.5145205,0.081329 -7.5470124,0.3152532 -0.1655099,1.1916671 0.3025368,2.1151076 0.3025368,3.1812717 0,0.5454699 -0.6410081,1.633628 -0.095471,1.633628 0.786374,0 5.8480996,-1.0720671 6.0185056,-0.4585631 0.237846,0.8562861 0.120706,1.8219151 0.159211,2.7227041 0.10593,2.479095 0.127401,4.96099 0.127401,7.451625 0,0.748387 -0.03763,1.602181 0.09547,2.321464 0.06267,0.33823 0.01585,1.375733 0.01585,1.031767 0,-0.657749 2.793064,-0.659187 3.375459,-0.659187 0.03486,0 0.857018,0.01981 0.859787,0 0.29303,-2.110014 -0.40023,-4.310756 -0.780182,-6.362536 -0.186347,-1.006346 -0.03169,-2.182742 -0.03169,-3.209929 0,-0.909354 -0.198786,-1.775103 -0.318422,-2.636733 -0.05459,-0.393056 -0.486032,-1.4405301 -0.191061,-1.1750571 0.363187,0.326861 1.76062,0.117379 2.260913,0.171968 C 18.71807,9.8025199 19.785105,10.57756 19.43269,8.0401444 19.281753,6.953353 19.309919,5.9595609 19.082412,4.8588727 Z" />
      <path
         style="fill:none;stroke:#000000;stroke-width:1.04814px;stroke-linecap:butt;stroke-linejoin:miter;stroke-opacity:1"
         d="M 19.432562,9.5877849 C 19.808983,9.4168529 20.117427,9.1276843 20.373967,8.8080761 20.731919,8.362124 20.999238,7.8511323 21.364954,7.4109215 21.447074,7.3120785 21.55005,7.2323894 21.63183,7.1334977 21.71103,7.0377247 21.72597,6.9067092 21.72757,6.7872813 21.73147,6.4927926 21.67345,6.2016002 21.607392,5.9160679 21.47852,5.3590607 21.320065,4.8086547 21.125369,4.2717124 21.090879,4.1765914 21.087089,4.0748112 21.077619,3.975128 21.034879,3.525139 21.017689,3.0712618 20.936786,2.6262992 c -0.01652,-0.090872 -0.01422,-0.1920199 -0.06529,-0.2699341 -0.0263,-0.040128 -0.08449,-0.015148 -0.122057,-0.00586 -0.208434,0.051527 -0.406906,0.1351862 -0.608267,0.2083981 -0.197671,0.07187 -0.397484,0.1429516 -0.607917,0.1684364 -0.51791,0.062722 -1.037921,-0.0115 -1.55482,-0.047205 -0.35704,-0.024662 -0.71756,-0.020798 -1.071533,0.042454 C 15.32535,3.0051977 13.739749,3.2636181 12.154676,3.525869 11.286367,3.669531 10.403325,3.620355 9.52773,3.607194 8.7612161,3.595673 7.9855778,3.621129 7.2388988,3.8136672 7.0947708,3.8508322 6.9540299,3.8992772 6.8083932,3.9314909 6.4742086,4.0054109 6.1390094,4.0743036 5.8035653,4.1424977 5.7592233,4.1515077 5.7282543,4.1651007 5.7128093,4.2190967 5.6547748,4.4219889 5.5278729,4.5956564 5.4021007,4.7615871 5.2238423,4.9967626 5.0138531,5.2100783 4.8665459,5.4668885 c -0.0621,0.1082621 -0.1235781,0.2321573 -0.1018884,0.3604214 0.01988,0.1175635 0.1239959,0.1960736 0.2261079,0.2433777 0.01589,0.00736 0.032026,0.014186 0.048332,0.020568"
         id="path1113-2"
         inkscape:path-effect="#path-effect1502"
         inkscape:original-d="M 19.432562,9.5877849 C 20.509367,9.092689 20.864813,7.8258571 21.613874,7.1516876 22.01515,6.7905211 21.240942,4.6913742 21.104374,4.1996934 21.070304,4.0773238 20.967308,2.3367882 20.849613,2.3367882 c -0.216772,0 -0.868087,0.3166793 -1.194143,0.3725755 -0.865465,0.1483567 -1.810856,-0.155527 -2.674898,0 -1.571231,0.2828484 -3.168758,0.518797 -4.744746,0.8024852 -1.730212,0.3114501 -3.5254906,-0.1779885 -5.2383236,0.3725755 -0.20873,0.067067 -1.267054,0.250404 -1.273761,0.2866117 -0.1256179,0.67844 -1.5539348,1.5800568 -0.6846435,1.9202196" />
      <path
         style="fill:none;stroke:#000000;stroke-width:1.04814px;stroke-linecap:butt;stroke-linejoin:miter;stroke-opacity:1"
         d="m 20.84417,2.6233881 c -0.08503,0.1146691 -0.186857,0.215613 -0.290834,0.3128744 -0.219957,0.2057505 -0.451623,0.3984088 -0.679072,0.5957057 -0.287236,0.2491579 -0.57408,0.500702 -0.829654,0.7828386 -0.152035,0.1678362 -0.296949,0.3452177 -0.403506,0.545906 -0.07465,0.1405993 -0.131731,0.2956906 -0.13201,0.4567229"
         id="path1117-7"
         inkscape:path-effect="#path-effect1504"
         inkscape:original-d="M 20.84417,2.6233881 C 20.403334,3.2276814 18.509094,4.4009119 18.509094,5.3174357"
         sodipodi:nodetypes="cc" />
      <path
         style="fill:none;stroke:#000000;stroke-width:1.04814px;stroke-linecap:butt;stroke-linejoin:miter;stroke-opacity:1"
         d="m 15.361522,22.890167 c 0.499744,-0.300556 0.986107,-0.623009 1.490348,-0.916127 0.422373,-0.245528 0.865805,-0.457311 1.331099,-0.608531 0.12869,-0.04182 0.323355,0.0048 0.389809,-0.113062 0.08187,-0.14522 0.08383,-0.320869 0.05034,-0.48025 -0.0528,-0.251295 -0.170027,-0.482505 -0.285423,-0.709843 -0.09994,-0.196894 -0.211311,-0.389299 -0.286651,-0.597557 -0.04322,-0.11947 -0.05509,-0.246852 -0.07678,-0.371232 -0.265538,-1.522754 -0.571563,-3.039908 -0.751889,-4.57619 -0.04359,-0.371322 -0.07114,-0.7442 -0.09909,-1.116969 -0.07748,-1.033635 -0.176239,-2.065994 -0.223408,-3.101631 -0.0082,-0.179578 -0.01466,-0.3592604 -0.01667,-0.5390231"
         id="path1125-2"
         inkscape:path-effect="#path-effect1506"
         inkscape:original-d="m 15.361522,22.890167 c 1.272204,-0.770159 1.967837,-1.318097 3.211256,-1.63772 0.305587,-0.55006 -0.475046,-1.439226 -0.557274,-1.920227 -0.315055,-1.843023 -0.749564,-3.886848 -0.875709,-5.703352 -0.07146,-1.028883 -0.245809,-2.8671 -0.256584,-3.8691161"
         sodipodi:nodetypes="ccssc" />
      <path
         style="fill:none;stroke:#000000;stroke-width:0.960207px;stroke-linecap:butt;stroke-linejoin:miter;stroke-opacity:1"
         d="m 80.595374,5.0474541 c -0.63482,0.039379 -1.271242,0.011122 -1.906176,-0.00986 -1.151581,-0.038064 -2.308605,-0.094876 -3.45696,0.024288 -0.620981,0.064439 -1.252002,0.1618237 -1.82162,0.4268765 -0.203479,0.094682 -0.412409,0.1953466 -0.57252,0.3541556 -0.21162,0.2098986 -0.327294,0.4952622 -0.40712,0.7767744 -0.165617,0.584062 -0.216654,1.1943114 -0.225257,1.7989169 -0.01418,0.9966582 0.06993,1.9965295 0.270307,2.9728395 0.116958,0.569871 0.258896,1.140979 0.508068,1.66882 0.125886,0.266675 0.291241,0.520996 0.527918,0.704726 0.369963,0.287199 0.845813,0.394936 1.305696,0.410169 0.69046,0.02287 1.373096,-0.11147 2.047204,-0.24433 0.678065,-0.13364 1.354387,-0.303925 2.047023,-0.334802 0.396401,-0.01767 0.813719,0.0092 1.169384,0.203263 0.280195,0.152881 0.47702,0.427389 0.576343,0.726817 0.153203,0.461859 0.16132,0.960293 0.103823,1.437789 -0.02942,0.244306 0.0098,0.489201 0.03336,0.732215 0.02401,0.247778 0.05191,0.498817 0.01596,0.747061 -0.02431,0.16789 -0.120406,0.313826 -0.214013,0.450691 -0.213021,0.311461 -0.538015,0.538364 -0.898761,0.646221 -0.496362,0.148402 -1.024271,0.120242 -1.531968,0.05691 -0.848261,-0.10581 -1.677093,-0.34587 -2.531551,-0.401688 -0.426272,-0.02785 -0.874306,-0.01011 -1.264876,0.18273 -0.314929,0.155495 -0.54579,0.445905 -0.672988,0.769144 -0.189744,0.482183 -0.215958,1.010102 -0.203399,1.522498 0.0069,0.282117 0.03777,0.562826 0.04527,0.845059 0.0096,0.362057 -0.01041,0.733296 0.09181,1.083491 0.02222,0.07612 0.02867,0.16454 0.08113,0.224604 0.06633,0.07593 0.171243,0.09951 0.266273,0.115277 0.273956,0.04547 0.553236,0.03786 0.829734,0.02892 0.242425,-0.0078 0.483946,-0.04039 0.72644,-0.03936 1.04316,0.0044 2.085065,0.07797 3.12846,0.06581 0.93702,-0.01093 1.884202,-0.07037 2.79008,-0.325735 0.664561,-0.187336 1.309695,-0.498466 1.803398,-0.990447 0.427261,-0.425771 0.725404,-0.97822 0.846529,-1.569838 0.14076,-0.68752 0.0933,-1.397816 -0.01133,-2.08662 -0.185134,-1.218781 -0.560567,-2.397146 -0.802108,-3.604276 -0.06419,-0.320822 -0.103348,-0.645754 -0.140065,-0.970901 -0.07555,-0.669015 -0.235439,-1.34654 -0.598274,-1.922572 -0.265186,-0.421006 -0.662499,-0.754898 -1.122383,-0.945931 -0.593867,-0.246688 -1.249071,-0.277999 -1.884198,-0.260159 -0.612133,0.01719 -1.221043,0.111683 -1.833701,0.101382 -0.295479,-0.005 -0.604246,-0.0258 -0.870932,-0.166442 C 76.649142,10.151613 76.518759,9.9615192 76.46969,9.7536895 76.4351,9.6071804 76.43129,9.4562271 76.41591,9.3069564 76.37933,8.9518289 76.31923,8.5964434 76.32972,8.2392269 c 0.0023,-0.079623 -0.02756,-0.1781559 0.02635,-0.2388421 0.0629,-0.070797 0.159579,-0.1033271 0.250378,-0.1185318 0.263469,-0.044119 0.532404,-0.00739 0.793138,0.036098 0.802131,0.1337835 1.587485,0.3790508 2.401811,0.4289567 0.328554,0.020135 0.671245,0.01583 0.980062,-0.1128946 0.209463,-0.087311 0.377118,-0.2627149 0.458203,-0.4757889 0.08018,-0.2106894 0.08045,-0.4388831 0.08596,-0.6607636 0.0076,-0.3054262 0.0036,-0.6147684 -0.06636,-0.9139128 C 81.23302,6.0712408 81.181353,5.9676752 81.12144,5.8693702 80.952138,5.5915823 80.770056,5.3217196 80.595374,5.0474541 Z"
         id="path1173-3"
         inkscape:path-effect="#path-effect1508"
         inkscape:original-d="m 80.595374,5.0474541 c -1.918409,0.1327486 -6.032059,-0.519106 -7.686971,0.7351562 -1.234368,0.9355389 -0.695344,6.7238167 0.452173,7.8504847 2.067317,2.029777 7.903156,-2.639086 7.395249,2.38928 -0.04148,0.410526 0.183257,1.230458 0,1.601611 -1.554894,3.148713 -7.754292,-2.559881 -7.234798,3.518273 0.04476,0.523448 -0.02298,1.178896 0.175017,1.654121 0.123479,0.296357 1.58472,0.131282 1.837865,0.131282 2.640857,0 6.954584,0.645045 8.314182,-2.074209 C 84.845282,18.859051 83.357733,15.688681 83.16254,13.580601 82.622121,7.7439024 76.593628,12.054135 76.438267,9.5372009 76.424397,9.3134179 76.258575,8.08418 76.365297,7.9881146 77.085515,7.3399045 81.171893,9.5244449 81.310057,7.410478 81.333827,7.0413094 81.370747,6.2854902 81.164196,5.9401577 80.983039,5.6373435 80.784966,5.3450193 80.595334,5.047462 Z" />
      <path
         style="fill:none;stroke:#000000;stroke-width:0.960207px;stroke-linecap:butt;stroke-linejoin:miter;stroke-opacity:1"
         d="m 72.592817,6.2300218 c 0.332324,-0.7477527 0.732856,-1.4726528 1.260713,-2.1012783 0.30539,-0.363689 0.641366,-0.7108425 1.041524,-0.9674672 0.197631,-0.1267426 0.430582,-0.184229 0.66022,-0.2175975 0.412849,-0.059991 0.831585,-0.053607 1.247524,-0.042861 0.390609,0.010091 0.781379,0.042679 1.17204,0.026156 0.261323,-0.011052 0.52176,-0.037492 0.782063,-0.062164 0.653307,-0.061921 1.305973,-0.1514109 1.963129,-0.1527807 0.413445,-8.618e-4 0.834769,0.030388 1.226412,0.1727983 0.293654,0.1067793 0.559528,0.2936614 0.748213,0.5444388 0.239359,0.3181278 0.355476,0.7111051 0.408976,1.1008018 0.05463,0.397932 0.06557,0.8028455 0.02524,1.2018671 -0.03049,0.3016628 -0.17268,0.5801614 -0.35214,0.8199761 -0.257665,0.3443213 -0.580659,0.6313399 -0.892778,0.9245508 -0.299934,0.2817637 -0.605186,0.5656032 -0.8353,0.9094205 -0.05509,0.082309 -0.105315,0.1679796 -0.148296,0.2572481"
         id="path1177-8"
         inkscape:path-effect="#path-effect1510"
         inkscape:original-d="m 72.592817,6.2300218 c 0.542459,-1.2216871 1.239078,-2.3043467 2.270147,-3.0467366 0.668461,-0.4813017 2.378672,-0.2030645 3.238151,-0.2625656 2.678372,-0.1853965 5.265682,-1.0244895 5.032276,2.7568605 -0.07202,1.1663653 -1.716976,1.8937253 -2.233032,2.9655503"
         sodipodi:nodetypes="cscsc" />
      <path
         style="fill:none;stroke:#000000;stroke-width:0.960207px;stroke-linecap:butt;stroke-linejoin:miter;stroke-opacity:1"
         d="m 82.006253,22.494821 c 0.580372,-0.332566 1.192487,-0.605042 1.778336,-0.927454 0.51407,-0.28291 1.021041,-0.596712 1.434151,-1.017907 0.2351,-0.239701 0.448929,-0.51075 0.572663,-0.824381 0.13351,-0.33841 0.186817,-0.702352 0.21769,-1.062644 0.06517,-0.760506 0.04167,-1.525888 -0.01469,-2.286006 C 85.900169,15.10556 85.724701,13.840407 85.467264,12.592524 85.302709,11.794871 85.121663,10.997227 84.846711,10.229745 84.744381,9.9441079 84.644882,9.6526858 84.482777,9.3953199 84.338104,9.1656293 84.098664,9.0153462 83.854006,8.9111986 83.459789,8.7433859 83.035536,8.6613312 82.613294,8.6017052 81.867834,8.4964367 81.113827,8.4815128 80.364901,8.4129152 80.195272,8.3973781 80.025512,8.3796835 79.858027,8.3479738"
         id="path1181-0"
         inkscape:path-effect="#path-effect1512"
         inkscape:original-d="m 82.006253,22.494821 c 1.221176,-0.70638 3.069938,-1.329038 3.738078,-2.66535 C 86.584795,18.148507 85.512665,11.2469 84.504505,9.4321709 83.914073,8.3693736 80.951216,8.5582006 79.858027,8.3479738"
         sodipodi:nodetypes="cssc" />
      <path
         style="fill:none;stroke:#000000;stroke-width:0.960207px;stroke-linecap:butt;stroke-linejoin:miter;stroke-opacity:1"
         d="m 74.046139,18.516678 c 0.04764,-0.377225 0.135001,-0.756277 0.317682,-1.092826 0.133204,-0.245399 0.328635,-0.458871 0.57076,-0.60049 0.283278,-0.16569 0.613951,-0.229837 0.938549,-0.242299 0.439442,-0.01687 0.877022,0.04497 1.309631,0.115184 0.574276,0.09321 1.145744,0.216537 1.727696,0.250604 0.367007,0.02148 0.742785,0.0076 1.095272,-0.106508 0.270229,-0.08746 0.51721,-0.246108 0.70596,-0.459116 0.02021,-0.0228 0.03978,-0.04617 0.05872,-0.07003"
         id="path1185-6"
         inkscape:path-effect="#path-effect1514"
         inkscape:original-d="m 74.046139,18.516678 c 0.502273,-4.059385 5.088212,-0.143999 6.724272,-2.205485" />
      <path
         style="fill:#e3ffe2;fill-opacity:1;stroke:none;stroke-width:0.0420905;stroke-miterlimit:4;stroke-dasharray:none"
         d="m 81.865953,6.3972894 c 0,-0.172597 -0.215424,-0.6779765 -0.478746,-1.1230784 l -0.478739,-0.8092664 -3.314773,0.026098 -3.314773,0.026205 0.410376,-0.4233319 c 0.225724,-0.2328436 0.591505,-0.4781076 0.81288,-0.5450416 0.64119,-0.193874 5.729957,-0.3009202 6.217958,-0.1307968 0.482878,0.1683308 0.73884,0.5958343 0.866506,1.4472148 0.09444,0.6294062 -0.13766,1.3619696 -0.536227,1.6927406 -0.149862,0.1243701 -0.184446,0.094227 -0.184446,-0.1607323 z"
         id="path1571" />
      <path
         style="fill:#e3ffe2;fill-opacity:1;stroke:none;stroke-width:0.0420905;stroke-miterlimit:4;stroke-dasharray:none"
         d="m 84.705692,19.662802 c 0.08983,-0.758809 -0.100938,-2.133713 -0.547379,-3.943604 -0.168846,-0.684559 -0.37559,-1.716324 -0.459431,-2.292799 -0.181328,-1.246822 -0.515295,-2.067293 -1.086288,-2.668714 -0.71157,-0.74948 -1.108437,-0.8572601 -3.432492,-0.9321811 l -2.096275,-0.06761 -0.120191,-0.6222266 c -0.06612,-0.3422268 -0.09044,-0.652025 -0.05399,-0.6884474 0.03645,-0.036485 0.65061,0.049681 1.364862,0.1912316 0.714252,0.1416025 2.037463,0.3173765 2.940462,0.3906081 2.09265,0.169705 2.608793,0.3383803 2.914903,0.9526303 0.648365,1.3010311 1.314017,5.1083981 1.323774,7.5717191 0.0063,1.681956 -0.113812,2.183803 -0.626437,2.609242 -0.17688,0.146804 -0.191181,0.08804 -0.121538,-0.499877 z"
         id="path1573" />
      <path
         style="fill:#e3ffe2;fill-opacity:1;stroke:none;stroke-width:0.0420905;stroke-miterlimit:4;stroke-dasharray:none"
         d="m 61.165251,15.208 c 0,-1.115898 -0.105335,-1.981712 -0.466977,-3.838538 C 60.255826,9.0977826 60.235972,8.8812689 60.320351,7.2482716 l 0.08909,-1.723556 0.57444,-0.5637719 c 0.334307,-0.3280982 0.574776,-0.4839036 0.57524,-0.3727173 4.51e-4,0.1050758 0.11611,1.4586396 0.25698,3.0079114 0.201083,2.2111181 0.522358,7.1348342 0.527464,8.0840172 4.72e-4,0.08658 -0.264467,0.340016 -0.588728,0.563111 l -0.589577,0.40564 z"
         id="path1575" />
      <path
         style="fill:#e3ffe2;fill-opacity:1;stroke:none;stroke-width:0.0420905;stroke-miterlimit:4;stroke-dasharray:none"
         d="m 62.0192,17.469953 c 0.286968,-0.190047 0.698604,-0.506921 0.914781,-0.70418 0.391194,-0.356944 0.404802,-0.35904 2.878323,-0.443058 1.366882,-0.04643 2.428122,-0.03478 2.358305,0.02591 -0.0698,0.06068 -0.421749,0.31574 -0.782044,0.566832 -0.642917,0.448047 -0.697673,0.460677 -2.947886,0.679864 -3.103762,0.302322 -3.069887,0.304085 -2.421479,-0.125337 z"
         id="path1577" />
      <path
         style="fill:#e3ffe2;fill-opacity:1;stroke:none;stroke-width:0.0420905;stroke-miterlimit:4;stroke-dasharray:none"
         d="m 50.948495,20.556915 c 10e-4,-0.03062 0.08866,-0.527255 0.193874,-1.10373 0.318422,-1.744666 0.396574,-5.992638 0.147128,-7.997325 C 51.172595,10.516184 51.076371,9.4844189 51.075658,9.1630604 51.074608,8.4473823 50.659336,7.5239319 49.746199,6.2030383 48.625177,4.5814135 47.741521,4.1241848 45.728595,4.1241848 c -1.289677,0 -1.33216,-0.00839 -0.917118,-0.1880149 0.239352,-0.1034512 0.877385,-0.211954 1.417827,-0.2412182 0.836748,-0.045279 1.149478,0.00419 2.10648,0.336714 2.475993,0.8590214 3.306525,1.4588177 3.790683,2.737555 1.008497,2.6636092 1.221299,7.7532983 0.44877,10.7334863 -0.267953,1.033683 -0.933011,2.455659 -1.317416,2.816784 -0.171531,0.16116 -0.310737,0.267997 -0.309311,0.237422 z"
         id="path1579" />
      <path
         style="fill:#e3ffe2;fill-opacity:1;stroke:none;stroke-width:0.0420905;stroke-miterlimit:4;stroke-dasharray:none"
         d="m 35.844645,18.568819 c 0.146099,-0.815114 0.09056,-4.350207 -0.08386,-5.338946 -0.08272,-0.468381 -0.206476,-1.653205 -0.275128,-2.632919 C 35.329496,8.3692647 35.176109,7.6476852 34.698725,6.8949345 34.029951,5.8403831 33.332951,5.5373562 30.441758,5.0441764 29.793227,4.9335561 28.967817,4.8383642 28.607522,4.8326415 l -0.655088,-0.010482 0.797811,-0.3727383 c 1.131651,-0.5287221 2.233445,-0.7847819 3.348137,-0.7781262 2.589976,0.015406 3.657356,1.2588122 4.38594,5.109038 0.280511,1.48237 0.396938,6.480765 0.187813,8.063085 -0.104622,0.791763 -0.259159,1.348019 -0.479325,1.725317 -0.178702,0.306257 -0.35261,0.556823 -0.386441,0.556823 -0.03367,0 -0.01664,-0.250566 0.03843,-0.556823 z"
         id="path1581" />
      <path
         style="fill:#e3ffe2;fill-opacity:1;stroke:none;stroke-width:0.0420905;stroke-miterlimit:4;stroke-dasharray:none"
         d="M 19.969922,7.3817728 C 19.926743,6.9592271 19.834124,6.152969 19.764164,5.590067 19.637397,4.5701146 19.63815,4.5655867 19.994404,4.2591639 c 0.383153,-0.3295655 0.554538,-0.3183296 0.557243,0.036473 9.31e-4,0.1218458 0.118844,0.5952892 0.262051,1.0520776 0.143207,0.4567886 0.260347,0.9789283 0.260347,1.1602979 0,0.2710274 -0.354353,0.8540639 -0.929145,1.5287915 -0.05304,0.062258 -0.131758,-0.2325417 -0.174938,-0.6550855 z"
         id="path1583" />
      <path
         style="fill:#e3ffe2;fill-opacity:1;stroke:none;stroke-width:0.0420905;stroke-miterlimit:4;stroke-dasharray:none"
         d="m 16.156172,20.724554 c -0.04937,-0.483076 -0.260138,-1.716177 -0.468348,-2.740239 -0.312702,-1.538014 -0.379762,-2.19898 -0.385494,-3.799495 -0.0042,-1.065662 -0.08102,-2.389375 -0.171559,-2.941575 l -0.164638,-1.003999 0.38446,-0.07693 c 0.935776,-0.1871561 1.006789,-0.143239 1.006789,0.622666 0,1.122586 0.364336,4.609014 0.652536,6.244348 0.146059,0.828689 0.303092,1.742528 0.349005,2.030765 0.04591,0.288236 0.193082,0.742815 0.327058,1.010163 0.133977,0.267359 0.243591,0.534749 0.243591,0.59421 0,0.05943 -0.378835,0.294923 -0.841835,0.52324 l -0.84183,0.415125 z"
         id="path1585" />
      <path
         style="fill:#d1d1d1;fill-opacity:1;stroke:none;stroke-width:0.00744062;stroke-miterlimit:4;stroke-dasharray:none"
         d="m 78.463858,18.137668 c -0.03169,-0.0052 -0.151724,-0.02107 -0.266369,-0.0349 -0.114645,-0.01383 -0.519276,-0.08175 -0.899184,-0.150912 -1.339592,-0.24384 -1.779485,-0.29133 -2.261135,-0.244089 -0.145228,0.01426 -0.267637,0.02234 -0.272034,0.0179 -0.01941,-0.01929 0.191141,-0.300124 0.278649,-0.371826 0.24985,-0.204745 0.508137,-0.275892 0.999754,-0.275397 0.374398,3.77e-4 0.596478,0.02642 1.435971,0.168465 0.767981,0.129936 1.000938,0.161152 1.377555,0.184588 0.517592,0.03217 0.993978,-0.01668 1.336427,-0.136971 0.161152,-0.0566 0.146376,-0.05681 0.146376,0.0021 0,0.08899 -0.148476,0.331202 -0.289504,0.472259 -0.149743,0.149767 -0.34544,0.259444 -0.579023,0.324515 -0.134056,0.03732 -0.859356,0.06928 -1.007491,0.04434 z"
         id="path1589" />
      <path
         style="fill:#d1d1d1;fill-opacity:1;stroke:none;stroke-width:0.0297625;stroke-miterlimit:4;stroke-dasharray:none"
         d="m 44.810356,18.045831 c -0.37847,-0.139622 -0.753212,-0.467931 -0.862648,-0.75578 -0.04726,-0.124299 -0.09476,-1.4887 -0.105573,-3.031998 -0.02298,-3.300037 0.03328,-3.73079 0.555762,-4.23878 l 0.336684,-0.3274381 0.03209,0.3242491 c 0.01783,0.178341 -0.03922,0.957557 -0.127084,1.731606 -0.30733,2.713249 -0.09202,3.781048 0.962778,4.774294 0.286889,0.270156 0.624933,0.55763 0.751181,0.638818 l 0.229527,0.14762 -0.261813,0.343233 c -0.389729,0.510925 -0.861246,0.633924 -1.511175,0.394174 z"
         id="path1591" />
      <path
         style="fill:#d1d1d1;fill-opacity:1;stroke:none;stroke-width:0.0297625;stroke-miterlimit:4;stroke-dasharray:none"
         d="m 28.786568,18.628238 c -0.528962,-0.104709 -1.272315,-0.496104 -1.505732,-0.792831 -0.392874,-0.499458 -0.423785,-0.864965 -0.332252,-3.928312 0.06489,-2.170419 0.140196,-2.62727 0.519471,-3.150866 0.264705,-0.365445 0.852645,-0.740781 0.972542,-0.620885 0.03288,0.03292 -0.01347,0.446852 -0.103354,0.919876 -0.208729,1.100092 -0.289226,3.195821 -0.148713,3.871953 0.223505,1.075409 0.841822,2.01172 1.537114,2.327587 0.445688,0.202466 0.861056,0.215507 1.50921,0.04738 0.265854,-0.06897 0.483413,-0.08815 0.483413,-0.04266 0,0.202502 -0.389649,0.817474 -0.623244,0.983666 -0.561558,0.399497 -1.469929,0.551016 -2.308447,0.385066 z"
         id="path1593" />
      <path
         style="fill:#e3ffe2;fill-opacity:1;stroke:none;stroke-width:0.0297625;stroke-miterlimit:4;stroke-dasharray:none"
         d="M 67.939054,21.441804 C 67.573609,20.775902 67.539117,20.649937 67.4253,19.564151 67.33066,18.66138 67.32812,18.375522 67.41421,18.28991 c 0.275876,-0.274925 2.331645,-1.596019 2.387101,-1.534011 0.09222,0.103034 0.574713,3.233911 0.585928,3.801823 l 0.0095,0.489857 -1.032967,0.554003 -1.032963,0.554003 z"
         id="path1595" />
      <path
         style="fill:#d1d1d1;fill-opacity:1;stroke:none;stroke-width:0.0210452;stroke-miterlimit:4;stroke-dasharray:none"
         d="m 6.0926664,4.7655712 c 0.01406,-0.042659 0.273765,-0.143752 0.57722,-0.224626 1.242073,-0.3310538 1.45584,-0.3546582 3.3686156,-0.3719837 l 1.83424,-0.016559 2.764011,-0.4702675 2.764019,-0.4702675 0.921804,0.044022 0.921805,0.044022 -0.443141,0.4648067 -0.443153,0.4647963 -1.342924,0.044336 c -0.73861,0.024315 -1.991458,0.1204206 -2.784115,0.2134428 -1.215345,0.1426408 -1.913394,0.1791369 -4.4545796,0.2329276 -1.657366,0.035114 -3.169963,0.077143 -3.361332,0.093389 -0.249362,0.021277 -0.340718,0.00734 -0.322471,-0.0479 z"
         id="path1597" />
      <path
         style="fill:#e3ffe2;fill-opacity:1;stroke:none;stroke-width:0.0210452;stroke-miterlimit:4;stroke-dasharray:none"
         d="m 55.730716,4.4094772 c 0,-0.031446 0.08426,-0.1379663 0.187179,-0.2366063 0.238282,-0.228284 0.922676,-0.4667248 1.715265,-0.5975847 0.538189,-0.088882 2.535677,-0.2290703 3.207204,-0.2251397 l 0.229289,0.00105 -0.547545,0.5145494 -0.547549,0.5145513 -0.22006,-0.091922 c -0.129024,-0.053874 -0.444495,-0.091817 -0.762624,-0.091712 -0.503566,2.411e-4 -2.344378,0.1429763 -2.982736,0.2312821 -0.15315,0.021174 -0.278411,0.012681 -0.278411,-0.018761 z"
         id="path1599" />
      <path
         style="fill:#e3ffe2;fill-opacity:1;stroke:none;stroke-width:0.0210452;stroke-miterlimit:4;stroke-dasharray:none"
         d="m 6.3695844,4.6807664 c 0.108084,-0.049786 0.424988,-0.1428297 0.704211,-0.2066714 0.279236,-0.063831 0.507802,-0.1326313 0.507938,-0.1528601 1.36e-4,-0.020227 0.287558,-0.046747 0.638713,-0.058905 0.351148,-0.012158 0.64581,-0.041611 0.654782,-0.065509 0.0094,-0.023896 0.723833,-0.035008 1.5885766,-0.024735 1.02029,0.012055 1.572268,-0.00419 1.572268,-0.047061 0,-0.03616 0.03922,-0.050625 0.08743,-0.032179 0.04809,0.018448 1.223481,-0.1597258 2.612001,-0.3959442 2.566612,-0.4366433 3.316188,-0.5053696 4.102217,-0.3761554 l 0.283522,0.046642 -0.365168,0.4031134 -0.365207,0.4031029 -0.704431,0.040563 c -0.387431,0.022327 -0.984495,0.057962 -1.326773,0.079239 -0.34227,0.021277 -0.666552,0.038466 -0.720594,0.038256 -0.05407,-1.887e-4 -0.658367,0.055866 -1.342928,0.1246549 -1.21418,0.1219402 -3.269913,0.2104032 -6.5180976,0.2804917 -1.399367,0.030186 -1.579783,0.02306 -1.408434,-0.055971 z"
         id="path1601" />
    </g>
  </g>
</svg>
